<?xml version="1.0" encoding="utf-8"?>
<!-- Generator: Adobe Illustrator 24.0.0, SVG Export Plug-In . SVG Version: 6.00 Build 0)  -->
<svg version="1.1" id="OBJECTS" xmlns="http://www.w3.org/2000/svg" xmlns:xlink="http://www.w3.org/1999/xlink" x="0px" y="0px"
	 viewBox="0 0 328.4 223.2" style="enable-background:new 0 0 328.4 223.2;" xml:space="preserve">
<style type="text/css">
	.st0{fill:#18127B;}
	.st1{fill:#01013F;}
	.st2{fill:#D7E1FC;}
	.st3{opacity:0.46;fill:#FFFFFF;}
	.st4{fill:#FEA1A1;}
	.st5{fill:#FD8F90;}
	.st6{fill:#E93F4B;}
	.st7{opacity:0.52;}
	.st8{fill:#CE2539;}
	.st9{fill:#090963;}
	.st10{opacity:0.49;}
	.st11{fill:#0097CF;}
	.st12{fill:#FFFFFF;}
	.st13{opacity:0.21;}
	.st14{fill:#E0D8CE;}
	.st15{fill:#D32647;}
	.st16{fill:#E5374B;}
	.st17{fill:#FFC501;}
	.st18{fill:#EDB107;}
	.st19{fill:#FF9201;}
	.st20{fill:#FEAC00;}
	.st21{opacity:0.4;}
	.st22{fill:#BC6404;}
	.st23{fill:#D32935;}
	.st24{opacity:0.21;fill:#E0D8CE;}
	.st25{opacity:0.15;}
	.st26{opacity:0.15;fill:#18127B;}
	.st27{opacity:0.42;}
	.st28{opacity:0.54;}
</style>
<g>
	<path class="st0" d="M121.5,209.3L37,223.1c-5.9,1-11.5-2.8-12.1-8.2L0.1,10.1C-0.7,3.9,5.4-1,12.1,0.2l86.3,15.4
		c4.4,0.8,7.8,4,8.3,8l23,175.7C130.4,204.1,126.8,208.4,121.5,209.3z"/>
	<path class="st1" d="M32.6,215.3L7.8,10.5c-0.6-4.7,2.8-8.6,7.5-9.7l-3.2-0.6C5.4-1-0.7,3.9,0.1,10.1l24.8,204.9
		c0.6,5.3,6.3,9.1,12.1,8.2l1.7-0.3C35.4,221.5,33,218.7,32.6,215.3z"/>
	<path class="st2" d="M116.6,198.1l-68.8,14c-4.8,1-9.4-2.4-10-7.2L16,19c-0.7-5.6,4.2-10.2,9.8-9.2l70.5,12.5
		c3.6,0.6,6.4,3.5,6.8,7.2l20.2,159.4C123.8,193.2,120.9,197.3,116.6,198.1z"/>
	<path class="st0" d="M39.2,11.5l2,6.9c0.3,0.9,1,1.5,1.9,1.7L83.3,26c0.8,0.1,1.4-0.7,1.1-1.4l-1.4-6"/>
	<polyline class="st3" points="21.1,62.6 105.5,48.6 113.5,111.8 27.9,120 	"/>
	<polyline class="st3" points="29.2,131.1 115.2,125 120.3,165.7 32.7,161.4 	"/>
	<polyline class="st3" points="34.4,175.7 121.7,176.6 122.9,186.1 37.2,199.7 	"/>
</g>
<g>
	<g>
		<path class="st4" d="M77.9,86.9c-3.5,6.4-5.3,13.6-8.7,20.1c-1.8,3.4-3.5,4.7-5.8,8.1c-1,1.4-2.9,3.5-3.3,5.2
			c-0.4,1.7,0.3,4.7,0.4,6.4c0.1,1.3,0.2,2.6,0.3,3.8c-0.7,0.5-1.2-0.6-1.4-1.5c-0.2-0.8-0.6-1.6-1.3-2.1c-1.4,2-2.2,3.7-1.6,7.1
			c-0.5,0.5-1.2-1.3-1.2-2.2c0,0.4-0.1,0.8-0.1,1.3c-0.3,0.7-1-1.1-1.5-1.6c-0.5-0.5-0.5-0.6-0.6-1.3c-0.1-0.5-0.1-2.3,0-2.7
			c1.7-5.1,3.5-9.1,5.9-13.9c0.7-1.5,1.5-3,2.3-4.6c0.8-1.7,1.7-3.3,2.7-4.9c0.7-1.1,1.4-2.2,2.1-3.3c3.5-6.2,3.8-13.8,7-20.2"/>
	</g>
	<g>
		<path class="st5" d="M101.2,83.4c2.2,5.1,5.7,10.8,7.9,15.9c1,2.2,2,4.5,3.5,6.4c1.4,1.7,3.2,3,5,4.3c4.5,3.2,10.1,6.4,14.6,9.6
			c2.3,1.7,2.5,3.9,4.8,5.9c1.5-1.5,3.4-2.5,5.5-2.8c-3.4-6.1-5.5-4.3-8.1-6.8c-3.8-3.7-6.7-6.6-10.5-10.3c-2.1-2.1-5.2-3.7-7-6.1
			c-1.6-2.1-4.4-8.5-5.6-10.8c-2.1-4.1-2.4-5.9-4.2-10.2"/>
	</g>
	<g>
		<path class="st4" d="M88.1,62.9c0.7,1.2,0.9,2.7,0.5,4.1s-1.3,2.6-2.5,3.3c-0.1,0.1-0.2,0.1-0.2,0.3c0,0.1,0.1,0.1,0.1,0.2
			c1,0.8,2,1.5,3.1,2c1.1,0.5,2.4,0.8,3.6,0.7c1.5-0.1,2.9-0.9,4.2-1.7c0,0,0.1-0.1,0.1-0.1c0-0.1,0-0.1-0.1-0.2
			c-0.8-1.3-1.1-2.7-1-4.2c0.1-1.3,0.5-2.6,1-3.8"/>
	</g>
	<g>
		<g>
			<path class="st5" d="M101.2,132.5c1.8,16.7,4.1,33.3,7,49.9c0.8,4.8,1.9,9.6,3.4,14.3c2.1,6.3,4.1,6.7,10.5,10.4
				c-4.1-1.2-10.6-0.7-14.8-2c-0.3-0.1-0.5-0.2-0.7-0.4c-0.2-0.3-0.2-0.7-0.2-1.1c0.8-11-6.7-20.8-8.8-31.7
				c-0.6-2.9-0.7-5.9-1.1-8.8c-1.6-11.6-7.1-22.2-10.1-33.5"/>
		</g>
		<g>
			<g>
				<path class="st6" d="M106.4,202.2c-1,1.6-1,3.5-0.5,5.3c0,0.2,0.1,0.3,0.2,0.5c0.1,0.1,0.3,0.2,0.5,0.2c2.6,0.6,5.3,0.4,7.9,0.9
					c0.9,0.2,1.9,0.4,2.8,0.5c0.7,0.1,1.4,0,2.1,0c1.5-0.1,3.1-0.1,4.6-0.2c1,0,2.2-0.2,2.6-1.1c0.1-0.1,0.1-0.3,0-0.5
					c-0.1-0.1-0.2-0.2-0.3-0.3c-2.3-1.3-4.9-2.2-7.5-2.7c-0.3,0-0.5-0.1-0.8-0.1c-0.2,0-0.4,0.1-0.6,0.2
					C113.8,206.6,109.4,204.7,106.4,202.2"/>
			</g>
			<g class="st7">
				<path class="st8" d="M125.8,209c-1.1,0.2-2.3-0.2-3.4-0.3c-1.4-0.1-2.8,0.1-4.3,0c-1.1-0.1-2.2-0.5-3.4-0.8
					c-1.5-0.4-3.1-0.5-4.6-0.5c-1.2,0-2.3,0.2-3.5,0.1c-0.3,0-0.6-0.1-0.8-0.2c0,0.1,0,0.2,0.1,0.2c0,0.2,0.1,0.3,0.2,0.5
					c0.1,0.1,0.3,0.2,0.5,0.2c2.6,0.6,5.3,0.4,7.9,0.9c0.9,0.2,1.9,0.4,2.8,0.5c0.7,0.1,1.4,0,2.1,0c1.5-0.1,3.1-0.1,4.6-0.2
					c0.7,0,1.6-0.1,2.1-0.5C126.1,208.9,125.9,209,125.8,209z"/>
			</g>
		</g>
	</g>
	<g>
		<g>
			<path class="st4" d="M78.2,130.3c3.2,7.9,6.4,15.8,9.6,23.7c0.7,1.8,1.5,3.8,1.2,5.8c-0.4,2.4-2.2,4.3-3.9,6.1
				c-4.7,5.2-8.2,11.5-12.3,17.2c-3.1,4.3-5,8.3-10,12.4c1.4,2.9,2,6.3,10.2,11.2c-7.4-10.9,2.3-17.4,8.1-23.6
				c5.8-6.2,12.1-12,16.9-19c0.7-1,1.4-2.1,1.7-3.3c0.5-1.8,0.1-3.8-0.3-5.7c-2.3-10.6-4.8-21.1-7.3-31.7"/>
		</g>
		<g>
			<g>
				<path class="st6" d="M62.8,195.3c-1.7,0.8-2.8,2.4-3.3,4.2c0,0.2-0.1,0.3,0,0.5c0,0.2,0.2,0.3,0.3,0.4c1.9,1.9,4.3,3.2,6.2,5
					c0.7,0.7,1.3,1.4,2.1,2c0.5,0.4,1.1,0.8,1.7,1.1c1.3,0.8,2.6,1.6,3.9,2.3c0.9,0.5,2,1,2.8,0.5c0.1-0.1,0.3-0.2,0.3-0.4
					c0-0.1-0.1-0.3-0.1-0.4c-1.3-2.3-2.9-4.5-4.9-6.3c-0.2-0.2-0.4-0.4-0.6-0.5c-0.2-0.1-0.4-0.1-0.6-0.2
					C66.6,203,64,199,62.8,195.3"/>
			</g>
			<g class="st7">
				<path class="st8" d="M75.4,211.5c-1-0.4-1.8-1.4-2.7-2.1c-1.1-0.9-2.4-1.4-3.5-2.4c-0.9-0.7-1.6-1.7-2.4-2.5
					c-1.1-1.1-2.3-2.1-3.6-2.9c-1-0.6-2.1-1.1-3-1.8c-0.2-0.2-0.4-0.4-0.6-0.6c0,0.1-0.1,0.2-0.1,0.2c0,0.2-0.1,0.3,0,0.5
					c0,0.2,0.2,0.3,0.3,0.4c1.9,1.9,4.3,3.2,6.2,5c0.7,0.7,1.3,1.4,2.1,2c0.5,0.4,1.1,0.8,1.7,1.1c1.3,0.8,2.6,1.6,3.9,2.3
					c0.6,0.4,1.4,0.8,2.1,0.7C75.6,211.6,75.5,211.6,75.4,211.5z"/>
			</g>
		</g>
	</g>
	<g>
		<g>
			<path class="st5" d="M88.2,63c0.5,1.4,0.9,2.9,0.5,4.2c2.5,1,5.5,0.5,7.5-1.2c-0.9-0.3-1.7-0.6-2.6-0.9"/>
		</g>
		<g>
			<path class="st4" d="M98.2,50.2c0.6,1.3,0.4,2.7,0.5,4.1c0.1,0.9,0.4,2,0.5,2.9c0.5,3.1-0.7,6-2.8,8.5c-0.3,0.3-0.5,0.6-0.9,0.7
				c-0.3,0.1-0.5,0.1-0.8,0c-1.9-0.2-4.1-0.9-5.7-2c-0.7-0.4-1.2-1.1-1.6-1.8c-0.4-0.5-0.4-1-0.7-1.6c-0.6-1.6-1.2-3.2-1.4-4.9
				s-1.1-7.1-0.5-8.7"/>
		</g>
		<g>
			<path class="st5" d="M98.2,52.1c-1.5,0.7-6.9,2.8-8.5,3.2c-1,0.2-2.1,0.3-3.1,0.7c-0.2,0.1-0.4,0.2-0.5,0.3
				c-0.1,0.2-0.1,0.4-0.1,0.7c0.1,1.6,0.7,3.1,0.8,4.7c0,0,0,0.1,0,0.1c0,0-0.1,0-0.1,0c-0.8-0.3-1.5-1-2-1.7
				c-0.5-0.7-0.9-1.5-1.3-2.3c-0.3-0.6-0.6-1.3-0.9-1.9c-0.3-0.7-0.6-1.5-0.4-2.3c0.1-0.4,0.3-0.8,0.5-1.1c0.6-1,4.2-4.6,5.1-5.3"/>
		</g>
		<circle class="st5" cx="88.9" cy="60.1" r="1"/>
		<circle class="st5" cx="97.6" cy="58.8" r="1"/>
		<g>
			<path class="st5" d="M93.7,56.9c0.6,0.8,0.8,2,1.3,2.9c0.1,0.2,0.2,0.4,0.1,0.5c0,0-0.1,0.1-0.1,0.1c-0.3,0.1-0.6,0.2-1,0.3
				c-0.3,0.1-0.5,0.2-0.8,0.2C93.2,59.8,93.7,58,93.7,56.9"/>
		</g>
		<g>
			<path class="st9" d="M88.4,57.5c0.4-0.4,0.7-0.8,1.2-1c0.5-0.2,1.1-0.1,1.6,0c0.2,0,0.2-0.2,0.1-0.3c-0.5-0.2-1.1-0.2-1.7,0
				c-0.5,0.2-0.9,0.6-1.3,1C88.1,57.4,88.3,57.6,88.4,57.5L88.4,57.5z"/>
		</g>
		<g>
			<path class="st9" d="M95.3,56.2c0.3-0.3,0.6-0.7,1.1-0.9c0.4-0.1,1,0.1,1.4,0.3c0.1,0.1,0.3-0.1,0.1-0.2
				c-0.5-0.2-1.1-0.5-1.6-0.3c-0.5,0.2-0.9,0.6-1.2,1C95,56.2,95.2,56.3,95.3,56.2L95.3,56.2z"/>
		</g>
		<g>
			<path class="st9" d="M86.9,55.8c1.1-0.6,2.2-1.1,3.5-1c0.2,0,0.2-0.2,0-0.3c-1.3-0.2-2.5,0.4-3.6,1
				C86.7,55.6,86.8,55.8,86.9,55.8L86.9,55.8z"/>
		</g>
		<g>
			<g>
				<path class="st0" d="M105.6,60.2c-1-1.4-2.5-2.6-3.2-4.2c-0.3-0.8-0.5-1.7-0.6-2.5c-0.2-1.4-0.3-2.8-0.6-4.2
					c-0.3-1.4-0.8-2.7-1.7-3.8c-1.5-1.7-3.7-3-6-3.2c-1.3-0.1-3.1-0.1-4.1,0.7c-2.3-0.2-4.4,1.2-6.1,2.7c-0.7,0.6-1.2,1.2-1.8,1.9
					c-1,1.3-1.8,2.7-2.4,4.2c-0.5,1.4-0.7,2.8-1.2,4.1c-0.8,2.2-2.3,4.2-2.9,6.5c-0.2,0.9-0.3,1.9-0.4,2.9c0,0.2,0,0.4,0.1,0.5
					c0.1,0.1,0.2,0.2,0.3,0.2c0.8,0.4,1.7,0.7,2.6,0.8c0.9,0.1,1.8-0.1,2.6-0.1c1.1,0,2.1,0.3,3.2,0.4c1.5,0.1,3.1-0.2,4.4-1
					c0.7-0.4,1-0.9,1.4-1.6c-0.9-0.3-1.4-1.2-1.9-2c-0.5-0.8-0.8-1.6-1.1-2.5c-0.5-1.6-1-3.2-1.2-4.8c0.4,0,0.8-0.1,1.3-0.1
					c0.6,0,1.1-0.1,1.6-0.2c0.1,0,0.2-0.1,0.3-0.2c0.1-0.1,0.1-0.2,0.1-0.3c0.2-1.6,0.2-3.2,0.1-4.8c0.7,1.5,1.1,3.1,1.3,4.8
					c0.6,0,1.2-0.1,1.9-0.1c0.1,0,0.1,0,0.2-0.1c0.1,0,0.1-0.1,0.1-0.2c0.1-0.9,0.1-2.8,0-4.8c0.7,1.3,1.3,2.8,1.7,4.2
					c0,0.1,0,0.1,0.1,0.1c0,0,0.1,0.1,0.2,0.1c0.6,0.1,1.1,0,1.7,0c1-0.1,2-0.4,3-0.8c0,0.2,0,0.4,0,0.7c0.1,1.9,0.8,3.7,0.7,5.6
					c-0.1,2.2-1.2,4.1-2.4,5.9c2.2,0.4,4.6,0.6,6.4-0.7c1.1-0.8,1.8-2,2.5-3.2c0.1-0.2,0.2-0.4,0.2-0.7
					C105.8,60.6,105.7,60.4,105.6,60.2z"/>
			</g>
			<g>
				<path class="st9" d="M88.3,52.1c-0.1,0.5-0.2,1-0.5,1.5c-0.3,0.4-0.8,0.7-1.3,0.7c-0.3,0-1.4,0.1-1.6,0c-0.4,1.6,0,4.2,0.4,5.8
					c0.2,1,0.4,2.1,0.9,3.1c0.1,0.3,0.3,0.6,0.3,0.9c0,0.5-0.5,1-1.1,1.1c-0.5,0.1-1.1,0-1.6,0c-1.8-0.2-3.6,0.2-5.3,0.9
					c-0.4,0.2-0.9,0.5-1,0.9c0,0,0.1,0,0.1,0c0.9,0.1,1.8-0.1,2.6-0.1c1.1,0,2.1,0.3,3.2,0.4c1.5,0.1,3.1-0.2,4.4-1
					c0.7-0.4,1.1-0.9,1.4-1.6c-0.7-0.5-1.5-1.3-2-2.1c-0.5-0.8-0.7-1.5-1-2.4c-0.5-1.6-1-3.2-1.2-4.8c0.4,0,0.8-0.1,1.3-0.1
					c0.6,0,1.1-0.1,1.6-0.2c0.1,0,0.2-0.1,0.3-0.2c0.1-0.1,0.1-0.2,0.1-0.3c0.2-1.5,0.2-2.9,0.1-4.4c0-0.1-0.1-0.1-0.1-0.2
					C88.5,50.7,88.5,51.4,88.3,52.1z"/>
			</g>
			<g>
				<path class="st9" d="M101.8,63.3c-0.6-0.1-1.3-0.2-1.7-0.8c-0.3-0.5-0.3-1.1-0.2-1.6c0.1-0.8,0.3-1.6,0.4-2.4
					c0-1.1-0.3-2.2-0.2-3.3c0-0.5,0.1-0.9,0.1-1.3c0.1-1.8-0.9-4.7-2.4-5.7c0.2,0.5,0.4,1.1,0.6,1.6c0.2,0.5,0.4,1.1,0.2,1.6
					c-0.2,0.4-0.5,0.8-1,0.9c-0.4,0.2-0.9,0.2-1.4,0.3c-0.7,0.1-1.5,0.1-2.1-0.3c-0.3-0.2-0.5-0.4-0.7-0.7c-0.4-0.6-0.9-1.2-1.3-1.7
					c0.6,1.2,1.2,2.5,1.5,3.8c0,0.1,0,0.1,0.1,0.1c0,0,0.1,0.1,0.2,0.1c0.6,0.1,1.1,0,1.7,0c1-0.1,2-0.4,3-0.8c0,0.2,0,0.4,0,0.7
					c0.1,1.9,0.8,3.7,0.7,5.6c-0.1,2.2-1.3,4.1-2.5,5.9c2.2,0.4,4.6,0.6,6.4-0.7c0,0,0,0,0,0c0-0.1,0-0.2,0-0.3
					C103.1,63.7,102.4,63.4,101.8,63.3z"/>
			</g>
			<g>
				<path class="st9" d="M90.4,53.9c-0.5-0.1-0.6-0.7-0.7-1.2c-0.2-0.7-0.5-1.4-0.9-2.1c0.5,1.3,0.8,2.6,0.9,4
					c0.6,0,1.2-0.1,1.9-0.1c0.1,0,0.1,0,0.2-0.1c0.1,0,0.1-0.1,0.1-0.2c0.1-0.5,0.1-1.5,0.1-2.6c0,0.6-0.1,1.2-0.5,1.7
					C91.2,53.8,90.8,54,90.4,53.9z"/>
			</g>
			<g>
				<g class="st10">
					<path class="st11" d="M87.8,45.4c-0.3,0-0.6,0-0.8,0.2c0,0,0,0.1,0,0.1C87.3,45.5,87.5,45.5,87.8,45.4
						C87.9,45.5,87.9,45.4,87.8,45.4L87.8,45.4z"/>
				</g>
				<g class="st10">
					<path class="st11" d="M88.1,45.9c-0.4,0.2-0.7,0.4-1,0.7c0,0,0,0.1,0.1,0.1C87.5,46.4,87.8,46.1,88.1,45.9
						C88.2,45.9,88.2,45.9,88.1,45.9L88.1,45.9z"/>
				</g>
				<g class="st10">
					<path class="st11" d="M89,47c-0.2,0.1-0.4,0.3-0.6,0.5c0,0,0,0.1,0.1,0.1C88.6,47.3,88.8,47.2,89,47C89.1,47,89,46.9,89,47
						L89,47z"/>
				</g>
				<g class="st10">
					<path class="st11" d="M84.1,47.2c-0.4,0.3-0.7,0.6-1.1,1c0,0,0,0.1,0.1,0.1C83.4,47.9,83.8,47.6,84.1,47.2
						C84.2,47.2,84.1,47.2,84.1,47.2L84.1,47.2z"/>
				</g>
				<g class="st10">
					<path class="st11" d="M84.5,48.6c-0.4,0.3-0.7,0.7-1,1.1c0,0,0,0.1,0.1,0C83.8,49.4,84.1,49,84.5,48.6
						C84.6,48.7,84.5,48.6,84.5,48.6L84.5,48.6z"/>
				</g>
				<g class="st10">
					<path class="st11" d="M84.9,50.4c-0.2,0.3-0.3,0.5-0.5,0.8c0,0,0,0.1,0.1,0C84.7,50.9,84.8,50.7,84.9,50.4
						C85,50.3,84.9,50.3,84.9,50.4L84.9,50.4z"/>
				</g>
				<g class="st10">
					<path class="st11" d="M81.7,51.1c-0.4,0.5-0.7,1-0.9,1.6c0,0.1,0.1,0.1,0.1,0C81.1,52.1,81.4,51.6,81.7,51.1
						C81.8,51.1,81.8,51.1,81.7,51.1L81.7,51.1z"/>
				</g>
				<g class="st10">
					<path class="st11" d="M82,53.7c-0.1,0.4-0.2,0.7-0.3,1.1c0,0.1,0.1,0.1,0.1,0C81.8,54.5,81.9,54.1,82,53.7
						C82.1,53.7,82,53.7,82,53.7L82,53.7z"/>
				</g>
				<g class="st10">
					<path class="st11" d="M79.6,55.9c-0.1,0.3-0.2,0.6-0.2,1c0,0.1,0.1,0.1,0.1,0C79.5,56.5,79.6,56.2,79.6,55.9
						C79.7,55.9,79.6,55.8,79.6,55.9L79.6,55.9z"/>
				</g>
				<g class="st10">
					<path class="st11" d="M81.3,56.2c-0.2,0.4-0.3,0.9-0.4,1.3c0,0.1,0.1,0.1,0.1,0C81.1,57.1,81.2,56.7,81.3,56.2
						C81.4,56.2,81.3,56.2,81.3,56.2L81.3,56.2z"/>
				</g>
				<g class="st10">
					<path class="st11" d="M82.5,57.3c0,0.2,0,0.4-0.1,0.7c0,0.1,0.1,0.1,0.1,0C82.5,57.8,82.5,57.5,82.5,57.3
						C82.6,57.3,82.5,57.3,82.5,57.3L82.5,57.3z"/>
				</g>
				<g class="st10">
					<path class="st11" d="M78.8,58.6c-0.1,0.3-0.1,0.5-0.2,0.8c0,0.1,0.1,0.1,0.1,0C78.7,59.2,78.8,58.9,78.8,58.6
						C78.9,58.6,78.8,58.6,78.8,58.6L78.8,58.6z"/>
				</g>
				<g class="st10">
					<path class="st11" d="M80,59.8c-0.1,0.3-0.1,0.6-0.1,1c0,0.1,0.1,0.1,0.1,0C80,60.4,80,60.1,80,59.8C80.1,59.7,80,59.7,80,59.8
						L80,59.8z"/>
				</g>
				<g class="st10">
					<path class="st11" d="M81.5,60.4c-0.1,0.4-0.1,0.8,0.1,1.2c0,0.1,0.1,0,0.1,0C81.5,61.1,81.5,60.8,81.5,60.4
						C81.6,60.4,81.5,60.3,81.5,60.4L81.5,60.4z"/>
				</g>
				<g class="st10">
					<path class="st11" d="M83,61.6c0.1,0.3,0.2,0.7,0.2,1c0,0.1,0.1,0,0.1,0C83.2,62.2,83.1,61.9,83,61.6
						C83.1,61.5,83,61.5,83,61.6L83,61.6z"/>
				</g>
				<g class="st10">
					<path class="st11" d="M78.2,61.7c-0.3,0.4-0.4,0.9-0.4,1.4c0,0.1,0.1,0.1,0.1,0C77.9,62.6,78,62.2,78.2,61.7
						C78.3,61.7,78.2,61.7,78.2,61.7L78.2,61.7z"/>
				</g>
				<g class="st10">
					<path class="st11" d="M80.1,63c-0.1,0.2-0.1,0.3-0.1,0.5c0,0.1,0.1,0.1,0.1,0C80.2,63.3,80.2,63.2,80.1,63
						C80.3,63,80.2,62.9,80.1,63L80.1,63z"/>
				</g>
				<g class="st10">
					<path class="st11" d="M91.8,45.8c0.3,0.2,0.5,0.3,0.8,0.3c0.1,0,0.1-0.1,0-0.1C92.3,46,92.1,45.9,91.8,45.8
						C91.8,45.7,91.8,45.8,91.8,45.8L91.8,45.8z"/>
				</g>
				<g class="st10">
					<path class="st11" d="M93.2,44.3c0.2,0.1,0.4,0.1,0.6,0.2c0.1,0,0.1-0.1,0-0.1C93.7,44.3,93.5,44.3,93.2,44.3
						C93.2,44.2,93.2,44.3,93.2,44.3L93.2,44.3z"/>
				</g>
				<g class="st10">
					<path class="st11" d="M96.3,44.6c0.4,0.2,0.8,0.4,1.1,0.6c0,0,0.1,0,0-0.1C97.1,44.8,96.8,44.6,96.3,44.6
						C96.3,44.5,96.3,44.6,96.3,44.6L96.3,44.6z"/>
				</g>
				<g class="st10">
					<path class="st11" d="M96.2,46.7c0.3,0.3,0.5,0.5,0.9,0.8c0,0,0.1,0,0-0.1C96.8,47.2,96.5,46.9,96.2,46.7
						C96.2,46.6,96.2,46.7,96.2,46.7L96.2,46.7z"/>
				</g>
				<g class="st10">
					<path class="st11" d="M98.7,46.5c0.2,0.4,0.4,0.8,0.6,1.3c0,0.1,0.1,0,0.1,0C99.2,47.3,99,46.9,98.7,46.5
						C98.8,46.4,98.7,46.5,98.7,46.5L98.7,46.5z"/>
				</g>
				<g class="st10">
					<path class="st11" d="M98.2,48.9c0.3,0.4,0.6,0.8,0.8,1.3c0,0,0.1,0,0.1,0C98.9,49.7,98.6,49.3,98.2,48.9
						C98.3,48.8,98.2,48.8,98.2,48.9L98.2,48.9z"/>
				</g>
				<g class="st10">
					<path class="st11" d="M100.2,49.7c0,0.4,0.1,0.8,0.1,1.3c0,0.1,0.1,0.1,0.1,0C100.4,50.6,100.4,50.2,100.2,49.7
						C100.3,49.7,100.2,49.7,100.2,49.7L100.2,49.7z"/>
				</g>
				<g class="st10">
					<path class="st11" d="M99.2,52.3c0,0.5,0.1,0.9,0.4,1.2c0,0,0.1,0,0.1-0.1C99.4,53.2,99.3,52.8,99.2,52.3
						C99.3,52.3,99.2,52.3,99.2,52.3L99.2,52.3z"/>
				</g>
				<g class="st10">
					<path class="st11" d="M101,53.2c0.1,0.4,0.2,0.8,0.3,1.2c0,0.1,0.1,0,0.1,0C101.2,54,101.1,53.6,101,53.2
						C101,53.2,100.9,53.2,101,53.2L101,53.2z"/>
				</g>
				<g class="st10">
					<path class="st11" d="M100.7,56.2c0,0.4,0,0.7,0.1,1c0,0.1,0.1,0,0.1,0C100.8,56.8,100.8,56.5,100.7,56.2
						C100.8,56.1,100.7,56.1,100.7,56.2L100.7,56.2z"/>
				</g>
				<g class="st10">
					<path class="st11" d="M101.9,57.4c0,0.4,0.1,0.7,0.3,1c0,0,0.1,0,0.1,0C102.1,58,102,57.7,101.9,57.4
						C102,57.3,101.9,57.3,101.9,57.4L101.9,57.4z"/>
				</g>
				<g class="st10">
					<path class="st11" d="M100.6,58.9c0.2,0.4,0.5,0.7,0.8,1.1c0,0,0.1,0,0.1-0.1C101.2,59.6,100.9,59.2,100.6,58.9
						C100.7,58.8,100.6,58.8,100.6,58.9L100.6,58.9z"/>
				</g>
				<g class="st10">
					<path class="st11" d="M102.4,59.8c0.2,0.2,0.4,0.5,0.6,0.7c0,0,0.1,0,0.1-0.1C102.9,60.2,102.7,60,102.4,59.8
						C102.5,59.7,102.4,59.7,102.4,59.8L102.4,59.8z"/>
				</g>
				<g class="st10">
					<path class="st11" d="M101.4,60.8c0.1,0.3,0.3,0.6,0.6,0.9c0,0,0.1,0,0.1-0.1C101.8,61.3,101.7,61,101.4,60.8
						C101.5,60.7,101.4,60.7,101.4,60.8L101.4,60.8z"/>
				</g>
				<g class="st10">
					<path class="st11" d="M103.1,62c0.1,0.1,0.1,0.3,0.2,0.4c0,0,0.1,0,0.1,0C103.3,62.2,103.2,62.1,103.1,62
						C103.1,61.9,103,61.9,103.1,62L103.1,62z"/>
				</g>
				<g class="st10">
					<path class="st11" d="M103.7,59.5c0.1,0.4,0.3,0.7,0.6,1c0,0,0.1,0,0.1-0.1C104,60.1,103.9,59.8,103.7,59.5
						C103.7,59.4,103.6,59.4,103.7,59.5L103.7,59.5z"/>
				</g>
				<g class="st10">
					<path class="st11" d="M100.7,63.9c-0.2-0.4-0.3-0.9-0.3-1.4c0-0.1-0.1-0.1-0.1,0C100.2,63,100.4,63.4,100.7,63.9
						C100.6,64,100.7,63.9,100.7,63.9L100.7,63.9z"/>
				</g>
				<g class="st10">
					<path class="st11" d="M99.4,63.9c-0.1-0.3-0.1-0.6-0.1-0.9c0-0.1-0.1-0.1-0.1,0C99.2,63.3,99.2,63.6,99.4,63.9
						C99.3,63.9,99.4,63.9,99.4,63.9L99.4,63.9z"/>
				</g>
				<g class="st10">
					<path class="st11" d="M81.7,65.2c0-0.2,0.1-0.5,0.1-0.7c0-0.1-0.1-0.1-0.1,0C81.7,64.7,81.6,65,81.7,65.2
						C81.6,65.3,81.7,65.3,81.7,65.2L81.7,65.2z"/>
				</g>
				<g class="st10">
					<path class="st11" d="M84,65.5c0.1-0.5,0.1-0.9,0.3-1.4c0-0.1-0.1-0.1-0.1,0C84,64.6,83.9,65,84,65.5
						C83.9,65.6,84,65.6,84,65.5L84,65.5z"/>
				</g>
				<g class="st10">
					<path class="st11" d="M89.7,47.7c-0.1,0.2-0.3,0.4-0.4,0.6c0,0,0,0.1,0.1,0C89.6,48.1,89.7,47.9,89.7,47.7
						C89.8,47.7,89.8,47.6,89.7,47.7L89.7,47.7z"/>
				</g>
				<g class="st10">
					<path class="st11" d="M91,47.6c-0.1,0.3-0.2,0.5-0.3,0.8c0,0.1,0.1,0.1,0.1,0C90.8,48.1,90.9,47.9,91,47.6
						C91.1,47.6,91,47.5,91,47.6L91,47.6z"/>
				</g>
				<g class="st10">
					<path class="st11" d="M93.1,47.5c0.2,0.3,0.4,0.5,0.7,0.6c0,0,0.1,0,0-0.1C93.6,47.9,93.4,47.7,93.1,47.5
						C93.2,47.4,93.1,47.4,93.1,47.5L93.1,47.5z"/>
				</g>
				<g class="st10">
					<path class="st11" d="M94.3,46.7c0.4,0.4,0.9,0.7,1.3,1.1c0,0,0.1,0,0-0.1C95.2,47.4,94.8,47,94.3,46.7
						C94.3,46.6,94.2,46.6,94.3,46.7L94.3,46.7z"/>
				</g>
				<g class="st10">
					<path class="st11" d="M95.4,49.1c0.4,0.4,0.7,0.8,1,1.3c0,0,0.1,0,0.1,0C96.2,49.9,95.9,49.4,95.4,49.1
						C95.5,49,95.4,49,95.4,49.1L95.4,49.1z"/>
				</g>
				<g class="st10">
					<path class="st11" d="M96.9,48.9c0.2,0.3,0.4,0.6,0.5,0.9c0,0,0.1,0,0.1,0C97.3,49.4,97.2,49.1,96.9,48.9
						C97,48.8,96.9,48.8,96.9,48.9L96.9,48.9z"/>
				</g>
			</g>
		</g>
		<g>
			<path class="st4" d="M98.6,55.6c0-0.3,0.3-0.6,0.6-0.8c0.1-0.1,0.3-0.2,0.4-0.2c0.4-0.1,0.8,0.3,0.9,0.7c0.1,0.4,0,0.8,0,1.2
				c-0.1,0.5-0.2,1-0.4,1.4c-0.2,0.4-0.6,0.8-1,1"/>
		</g>
		<g>
			<path class="st5" d="M99.1,58.1c0-0.2-0.1-2.1,0.1-2.2c0.1,0,0.1-0.1,0.2-0.1c0.2,0,0.4,0.2,0.5,0.4s0,0.4,0,0.7
				c-0.1,0.3-0.1,0.5-0.2,0.8C99.6,57.8,99.4,58,99.1,58.1"/>
		</g>
		<g>
			<path class="st4" d="M86.1,58.2c-0.4-0.4-0.8-0.7-1.4-0.8c-0.5,0-1.1,0.2-1.3,0.7c-0.1,0.3,0,0.7,0.1,1c0.3,0.8,1,1.5,1.7,2
				c0.3,0.3,0.6,0.5,1,0.6c0.5,0.2,1,0.1,1.5,0"/>
		</g>
		<g>
			<path class="st5" d="M86.7,60.9c-0.6-1.9-1.2-2.1-1.4-2.2c-0.3,0-0.5,0.1-0.6,0.4c-0.1,0.2,0,0.3,0,0.5c0.2,0.4,0.5,0.7,0.8,1
				c0.1,0.1,0.3,0.2,0.5,0.3C86.2,60.9,86.5,60.9,86.7,60.9"/>
		</g>
		<g>
			<path class="st12" d="M92.1,62.3c1.6,0,3.4-0.8,4.9-1.3c-0.2,0.4-0.4,0.7-0.6,1.1c-0.4,0.6-1.1,1.2-1.9,1.3c-0.4,0-0.7-0.1-1-0.2
				C93,62.9,92.5,62.7,92.1,62.3"/>
		</g>
	</g>
	<g>
		<g>
			<path class="st6" d="M81.9,101c-3.9,5.6-7.9,11.4-10.3,17.8c-1.4,3.7-2.2,7.5-3,11.4c-0.7,3.4-1.4,6.7-2.1,10.1
				c4,0.6,7.9,2.1,11.7,3.4s8,2.3,12,1.8c3.7-0.5,7.3-2.3,11-1.8c1.1,0.2,2.2,0.5,3.3,0.7c3.7,0.8,7.7-0.1,10.7-2.4
				c-3.9-3.5-6.1-8.6-7.5-13.6c-1.3-5.1-2-10.3-3.4-15.4c-1.1-4.1-2.8-8-4.9-11.6"/>
		</g>
		<g class="st7">
			<path class="st8" d="M89.1,119.2c1,4.4,1.7,8.8,2.2,13.2c0.1,1.3,0.3,2.6,1,3.7c0.7,1,1.7,1.5,2.8,2.1c1.2,0.6,2.3,1.1,3.5,1.6
				c1.1,0.5,2.5,0.9,3.5,0.3c-2-3.4-4-6.8-6-10.1c-1-1.7-2-3.3-3.2-4.8c-0.7-0.9-1.5-1.7-2.1-2.7C90.3,121.4,89.7,120.5,89.1,119.2"
				/>
		</g>
		<g class="st7">
			<path class="st8" d="M72.5,125.8c1.5,2.6,3.3,6.6,4.6,9.7c0.3,0.6,0.5,1.3,0.5,2c0,0.3-0.1,0.6-0.3,0.8c-0.1,0.2-0.4,0.3-0.6,0.4
				c-1.4,0.6-3.1,0.3-4.3-0.7s-1.8-2.5-1.8-4C70.6,131.1,72.7,128.6,72.5,125.8"/>
		</g>
	</g>
	<g>
		<g>
			<path class="st12" d="M86.4,69.9c2.7,2,6.5,2.5,9.6,1.4c0.4-0.1,0.7-0.3,1.1-0.3c0.4,0,0.8,0.2,1.1,0.4c1.6,0.8,3.2,1.6,4.7,2.4
				c0.1,0.1,0.3,0.2,0.4,0.3c0.2,0.2,0.2,0.5,0.2,0.7c0,3.7,0,7.5,0,11.2c0,1.4,0,2.7-0.2,4.1c-0.2,1.3-0.7,2.6-1.3,3.8
				c-1,2.5-2.2,5.1-2.2,7.8c-5.7,0.9-11.5,1.1-17.2,0.6c-0.3,0-0.6-0.1-0.8-0.2c-0.4-0.3-0.4-0.8-0.5-1.2c-0.4-3.4-1-6.9-2.2-10.1
				c-0.4-1-0.8-1.9-1.1-2.9c-0.6-2.1-0.6-4.3-0.6-6.5c0-2.3,0-4.5,0-6.8c0-0.2,0-0.4,0.1-0.6c0.1-0.2,0.3-0.3,0.5-0.4
				C80.7,72.1,83.6,70.8,86.4,69.9"/>
		</g>
		<g>
			<path class="st12" d="M78.2,73.7c-0.6,0.1-1.1,0.5-1.5,0.9c-2.5,2.3-4.6,4.9-6.4,7.8c-0.1,0.2-0.2,0.3-0.2,0.5
				c0,0.2,0.2,0.3,0.3,0.4c2.1,1.7,4.3,3.1,6.7,4.3c0.2,0.1,0.5,0.2,0.7,0.1c0.2-0.1,0.2-0.4,0.2-0.6c0-4.2,0-8.5,0-12.7"/>
		</g>
		<g>
			<path class="st12" d="M103,73.8c0.7,0.1,1.3,0.7,1.8,1.2c2,2,4.1,4.2,5.3,6.8c-0.7,1-1.6,1.8-2.6,2.5c-1.1,0.8-2.3,1.6-3.4,2.3
				c-0.1,0.1-0.2,0.1-0.4,0.1c-0.2-0.1-0.3-0.3-0.3-0.5c0-1,0.1-1.9,0.1-2.9c0-3-1.3-6.1-0.3-8.9"/>
		</g>
		<g class="st13">
			<path class="st14" d="M80.8,91.1c1.5,0.8,3.1,1.7,4.8,1.8c1.7,0.1,3.3-0.6,5-0.8c3.4-0.4,6.9,1,10.1-0.1c-1,1-1.7,2.8-3.2,2.8
				c-0.5,0-1-0.2-1.5-0.3c-1.9-0.6-4-0.4-5.8,0.4c-0.9,0.4-1.7,0.9-2.7,1.1c-1.4,0.3-2.9-0.1-4.1-1S81.5,92.4,80.8,91.1"/>
		</g>
		<g>
			<path class="st6" d="M92.3,71.9c0.2,3.9,0.4,7.9,0.6,11.8c0.1,4-0.1,8-0.4,11.9c-0.2,2.2-0.4,4.5-0.6,6.7c0,0.1,0.1,0.1,0.1,0
				c0.4-4,0.8-7.9,1-11.9c0.2-4,0-7.9-0.2-11.8C92.6,76.4,92.5,74.1,92.3,71.9C92.4,71.8,92.3,71.8,92.3,71.9L92.3,71.9z"/>
		</g>
		<g>
			<g>
				<path class="st6" d="M80.9,78.2c0.2,0,0.2-0.3,0-0.3C80.7,77.9,80.7,78.2,80.9,78.2L80.9,78.2z"/>
			</g>
			<g>
				<path class="st6" d="M80.2,81.5c0.2,0,0.2-0.3,0-0.3C80,81.2,80,81.5,80.2,81.5L80.2,81.5z"/>
			</g>
			<g>
				<path class="st6" d="M84.9,75.9c0.2,0,0.2-0.3,0-0.3C84.7,75.6,84.7,75.9,84.9,75.9L84.9,75.9z"/>
			</g>
			<g>
				<path class="st6" d="M82.9,73.9c0.2,0,0.2-0.3,0-0.3C82.7,73.6,82.7,73.9,82.9,73.9L82.9,73.9z"/>
			</g>
			<g>
				<path class="st6" d="M79.6,75.5c0.2,0,0.2-0.3,0-0.3C79.4,75.2,79.4,75.5,79.6,75.5L79.6,75.5z"/>
			</g>
			<g>
				<path class="st6" d="M75.4,80c0.2,0,0.2-0.3,0-0.3C75.2,79.7,75.2,80,75.4,80L75.4,80z"/>
			</g>
			<g>
				<path class="st6" d="M76.1,84.4c0.2,0,0.2-0.3,0-0.3C75.9,84.2,75.9,84.4,76.1,84.4L76.1,84.4z"/>
			</g>
			<g>
				<path class="st6" d="M73,82.1c0.2,0,0.2-0.3,0-0.3C72.8,81.9,72.8,82.1,73,82.1L73,82.1z"/>
			</g>
			<g>
				<path class="st6" d="M76.1,76.6c0.2,0,0.2-0.3,0-0.3C76,76.3,76,76.6,76.1,76.6L76.1,76.6z"/>
			</g>
			<g>
				<path class="st6" d="M86.1,72.8c0.2,0,0.2-0.3,0-0.3C86,72.5,86,72.8,86.1,72.8L86.1,72.8z"/>
			</g>
			<g>
				<path class="st6" d="M88.1,76.4c0.2,0,0.2-0.3,0-0.3C87.9,76.1,87.9,76.4,88.1,76.4L88.1,76.4z"/>
			</g>
			<g>
				<path class="st6" d="M85,79.1c0.2,0,0.2-0.3,0-0.3C84.8,78.8,84.8,79.1,85,79.1L85,79.1z"/>
			</g>
			<g>
				<path class="st6" d="M83.1,81.3c0.2,0,0.2-0.3,0-0.3C82.9,81,82.9,81.3,83.1,81.3L83.1,81.3z"/>
			</g>
			<g>
				<path class="st6" d="M81,84.6c0.2,0,0.2-0.3,0-0.3C80.8,84.3,80.8,84.6,81,84.6L81,84.6z"/>
			</g>
			<g>
				<path class="st6" d="M80.6,87.6c0.2,0,0.2-0.3,0-0.3C80.4,87.4,80.4,87.6,80.6,87.6L80.6,87.6z"/>
			</g>
			<g>
				<path class="st6" d="M80.5,90.5c0.2,0,0.2-0.3,0-0.3C80.3,90.2,80.3,90.5,80.5,90.5L80.5,90.5z"/>
			</g>
			<g>
				<path class="st6" d="M84.1,88.6c0.2,0,0.2-0.3,0-0.3C84,88.3,84,88.6,84.1,88.6L84.1,88.6z"/>
			</g>
			<g>
				<path class="st6" d="M84.3,86.3c0.2,0,0.2-0.3,0-0.3C84.1,86,84.1,86.3,84.3,86.3L84.3,86.3z"/>
			</g>
			<g>
				<path class="st6" d="M86.1,83.1c0.2,0,0.2-0.3,0-0.3C85.9,82.8,85.9,83.1,86.1,83.1L86.1,83.1z"/>
			</g>
			<g>
				<path class="st6" d="M87.3,85.8c0.2,0,0.2-0.3,0-0.3C87.1,85.5,87.1,85.8,87.3,85.8L87.3,85.8z"/>
			</g>
			<g>
				<path class="st6" d="M89,83.2c0.2,0,0.2-0.3,0-0.3C88.8,83,88.8,83.2,89,83.2L89,83.2z"/>
			</g>
			<g>
				<path class="st6" d="M73.4,84.9c0.2,0,0.2-0.3,0-0.3C73.2,84.6,73.2,84.9,73.4,84.9L73.4,84.9z"/>
			</g>
			<g>
				<path class="st6" d="M89.5,79.7C89.5,79.7,89.5,79.7,89.5,79.7c0,0.2,0.3,0.2,0.3,0c0,0,0,0,0,0C89.8,79.5,89.5,79.5,89.5,79.7
					L89.5,79.7z"/>
			</g>
			<g>
				<path class="st6" d="M87.1,80.3c0.2,0,0.2-0.3,0-0.3C86.9,80,86.9,80.3,87.1,80.3L87.1,80.3z"/>
			</g>
			<g>
				<path class="st6" d="M91.3,75.6C91.3,75.6,91.2,75.6,91.3,75.6c-0.2,0-0.2,0.3,0,0.3c0,0,0,0,0,0C91.4,75.8,91.4,75.6,91.3,75.6
					L91.3,75.6z"/>
			</g>
			<g>
				<path class="st6" d="M89.6,73.4c0.2,0,0.2-0.3,0-0.3C89.5,73.1,89.5,73.4,89.6,73.4L89.6,73.4z"/>
			</g>
			<g>
				<path class="st6" d="M91.9,79.3c0.2,0,0.2-0.3,0-0.3C91.7,79,91.7,79.3,91.9,79.3L91.9,79.3z"/>
			</g>
			<g>
				<path class="st6" d="M91.3,81.3c0.2,0,0.2-0.3,0-0.3C91.1,81.1,91.1,81.3,91.3,81.3L91.3,81.3z"/>
			</g>
			<g>
				<path class="st6" d="M91.4,85.8c0.2,0,0.2-0.3,0-0.3C91.3,85.5,91.3,85.7,91.4,85.8L91.4,85.8z"/>
			</g>
			<g>
				<path class="st6" d="M89.4,88.4c0.2,0,0.2-0.3,0-0.3C89.2,88.2,89.2,88.4,89.4,88.4L89.4,88.4z"/>
			</g>
			<g>
				<path class="st6" d="M87.8,90.5c0.2,0,0.2-0.3,0-0.3C87.6,90.2,87.6,90.5,87.8,90.5L87.8,90.5z"/>
			</g>
			<g>
				<path class="st6" d="M89.3,93.5c0.2,0,0.2-0.3,0-0.3C89.2,93.2,89.2,93.5,89.3,93.5L89.3,93.5z"/>
			</g>
			<g>
				<path class="st6" d="M88.5,97.6c0.2,0,0.2-0.3,0-0.3C88.3,97.4,88.3,97.6,88.5,97.6L88.5,97.6z"/>
			</g>
			<g>
				<path class="st6" d="M90.1,99.8c0.2,0,0.2-0.3,0-0.3C89.9,99.5,89.9,99.8,90.1,99.8L90.1,99.8z"/>
			</g>
			<g>
				<path class="st6" d="M91.6,96.5c0.2,0,0.2-0.3,0-0.3C91.4,96.3,91.4,96.5,91.6,96.5L91.6,96.5z"/>
			</g>
			<g>
				<path class="st6" d="M92,90.5C92,90.5,92,90.5,92,90.5c0-0.2-0.3-0.2-0.3,0c0,0,0,0,0,0C91.7,90.7,92,90.7,92,90.5L92,90.5z"/>
			</g>
			<g>
				<path class="st6" d="M84.5,91.2C84.5,91.2,84.5,91.2,84.5,91.2c0-0.2-0.3-0.2-0.3,0c0,0,0,0,0,0C84.2,91.4,84.5,91.4,84.5,91.2
					L84.5,91.2z"/>
			</g>
			<g>
				<path class="st6" d="M81.7,93.6c0.2,0,0.2-0.3,0-0.3C81.6,93.3,81.6,93.6,81.7,93.6L81.7,93.6z"/>
			</g>
			<g>
				<path class="st6" d="M81.4,97.5c0.2,0,0.2-0.3,0-0.3C81.2,97.2,81.2,97.5,81.4,97.5L81.4,97.5z"/>
			</g>
			<g>
				<path class="st6" d="M82.9,101.1c0.2,0,0.2-0.3,0-0.3C82.7,100.8,82.7,101.1,82.9,101.1L82.9,101.1z"/>
			</g>
			<g>
				<path class="st6" d="M84.8,97.7c0.2,0,0.2-0.3,0-0.3C84.7,97.4,84.7,97.7,84.8,97.7L84.8,97.7z"/>
			</g>
			<g>
				<path class="st6" d="M85.8,94.4c0.2,0,0.2-0.3,0-0.3C85.6,94.1,85.6,94.4,85.8,94.4L85.8,94.4z"/>
			</g>
			<g>
				<path class="st6" d="M86.7,101c0.2,0,0.2-0.3,0-0.3C86.6,100.7,86.5,101,86.7,101L86.7,101z"/>
			</g>
			<g>
				<g>
					<path class="st11" d="M91.3,102.1C91.4,102.1,91.4,102.1,91.3,102.1c0-0.1,0-0.1,0-0.1C91.3,102,91.3,102,91.3,102.1
						C91.3,102.1,91.3,102.1,91.3,102.1L91.3,102.1z"/>
				</g>
			</g>
			<g>
				<path class="st6" d="M93.8,73c0.2,0,0.2-0.3,0-0.3C93.6,72.7,93.6,73,93.8,73L93.8,73z"/>
			</g>
			<g>
				<path class="st6" d="M94.3,76.1c0.2,0,0.2-0.3,0-0.3C94.2,75.8,94.2,76.1,94.3,76.1L94.3,76.1z"/>
			</g>
			<g>
				<path class="st6" d="M96.7,72.9c0.2,0,0.2-0.3,0-0.3C96.5,72.7,96.5,72.9,96.7,72.9L96.7,72.9z"/>
			</g>
			<g>
				<path class="st6" d="M97.6,75.3c0.2,0,0.2-0.3,0-0.3C97.4,75,97.4,75.3,97.6,75.3L97.6,75.3z"/>
			</g>
			<g>
				<path class="st6" d="M100.8,74c0.2,0,0.2-0.3,0-0.3C100.6,73.7,100.6,74,100.8,74L100.8,74z"/>
			</g>
			<g>
				<path class="st6" d="M96.3,78.2c0.2,0,0.2-0.3,0-0.3C96.1,78,96.1,78.2,96.3,78.2L96.3,78.2z"/>
			</g>
			<g>
				<path class="st6" d="M94.7,80.3c0.2,0,0.2-0.3,0-0.3C94.5,80,94.5,80.3,94.7,80.3L94.7,80.3z"/>
			</g>
			<g>
				<path class="st6" d="M95.4,83.1c0.2,0,0.2-0.3,0-0.3C95.2,82.8,95.2,83.1,95.4,83.1L95.4,83.1z"/>
			</g>
			<g>
				<path class="st6" d="M99.9,76.5c0.2,0,0.2-0.3,0-0.3C99.8,76.2,99.8,76.5,99.9,76.5L99.9,76.5z"/>
			</g>
			<g>
				<path class="st6" d="M102.1,78.9C102.2,78.9,102.2,78.9,102.1,78.9c0.2,0,0.2-0.3,0-0.3c0,0,0,0,0,0
					C102,78.6,102,78.9,102.1,78.9L102.1,78.9z"/>
			</g>
			<g>
				<path class="st6" d="M99.1,79.9c0.2,0,0.2-0.3,0-0.3C98.9,79.6,98.9,79.9,99.1,79.9L99.1,79.9z"/>
			</g>
			<g>
				<path class="st6" d="M98.5,84c0.2,0,0.2-0.3,0-0.3C98.3,83.7,98.3,84,98.5,84L98.5,84z"/>
			</g>
			<g>
				<path class="st6" d="M94.9,86.8c0.2,0,0.2-0.3,0-0.3C94.8,86.5,94.8,86.8,94.9,86.8L94.9,86.8z"/>
			</g>
			<g>
				<path class="st6" d="M98.1,88.9c0.2,0,0.2-0.3,0-0.3C97.9,88.6,97.9,88.9,98.1,88.9L98.1,88.9z"/>
			</g>
			<g>
				<path class="st6" d="M101.9,82.7c0.2,0,0.2-0.3,0-0.3C101.7,82.4,101.7,82.7,101.9,82.7L101.9,82.7z"/>
			</g>
			<g>
				<path class="st6" d="M101.6,87.9C101.7,87.9,101.7,87.9,101.6,87.9c0.2,0,0.2-0.3,0-0.3c0,0,0,0,0,0
					C101.5,87.6,101.5,87.9,101.6,87.9L101.6,87.9z"/>
			</g>
			<g>
				<path class="st6" d="M94.9,90.2c0.2,0,0.2-0.3,0-0.3C94.8,90,94.8,90.2,94.9,90.2L94.9,90.2z"/>
			</g>
			<g>
				<path class="st6" d="M96,93.4c0.2,0,0.2-0.3,0-0.3C95.8,93.1,95.8,93.4,96,93.4L96,93.4z"/>
			</g>
			<g>
				<path class="st6" d="M100.6,91.9c0.2,0,0.2-0.3,0-0.3C100.4,91.7,100.4,91.9,100.6,91.9L100.6,91.9z"/>
			</g>
			<g>
				<path class="st6" d="M99.2,95.8c0.2,0,0.2-0.3,0-0.3C99.1,95.6,99.1,95.8,99.2,95.8L99.2,95.8z"/>
			</g>
			<g>
				<path class="st6" d="M94.9,97.1c0.2,0,0.2-0.3,0-0.3C94.7,96.8,94.7,97.1,94.9,97.1L94.9,97.1z"/>
			</g>
			<g>
				<path class="st6" d="M94.3,101.4c0.2,0,0.2-0.3,0-0.3C94.1,101.1,94.1,101.4,94.3,101.4L94.3,101.4z"/>
			</g>
			<g>
				<path class="st6" d="M98.4,99.7C98.3,99.6,98.3,99.6,98.4,99.7c-0.2-0.2-0.4,0-0.2,0.1c0,0,0,0,0,0
					C98.3,100,98.5,99.8,98.4,99.7L98.4,99.7z"/>
			</g>
			<g>
				<path class="st6" d="M93.5,94.1C93.5,94.1,93.5,94.1,93.5,94.1c0.2,0,0.2-0.3,0-0.3c0,0,0,0,0,0C93.3,93.8,93.3,94.1,93.5,94.1
					L93.5,94.1z"/>
			</g>
			<g>
				<path class="st6" d="M105,76.6c0.2,0,0.2-0.3,0-0.3C104.8,76.4,104.8,76.6,105,76.6L105,76.6z"/>
			</g>
			<g>
				<path class="st6" d="M105.2,81C105.2,81,105.2,81,105.2,81c0.2,0,0.2-0.3,0-0.3c0,0,0,0,0,0C105,80.8,105,81,105.2,81L105.2,81z
					"/>
			</g>
			<g>
				<path class="st6" d="M108.3,80.4c0.2,0,0.2-0.3,0-0.3C108.1,80.1,108.1,80.4,108.3,80.4L108.3,80.4z"/>
			</g>
			<g>
				<path class="st6" d="M105.2,84.3c0.2,0,0.2-0.3,0-0.3C105.1,84.1,105.1,84.3,105.2,84.3L105.2,84.3z"/>
			</g>
			<g>
				<path class="st6" d="M108.5,82.8c0.2,0,0.2-0.3,0-0.3C108.3,82.5,108.3,82.8,108.5,82.8L108.5,82.8z"/>
			</g>
		</g>
		<g class="st13">
			<path class="st14" d="M101.3,95.4c-0.2,0.4-0.4,0.8-0.5,1.2c-0.4,1.3-1.2,2.4-2.3,3.2c-2.2,1.7-5.1,2.1-7.9,1.7
				c-0.6-0.1-1.3-0.2-1.9-0.3c-1.5-0.2-3.2,0-4.6-0.8c-1.1-0.7-1.8-1.9-2.2-3.2s-0.6-2.6-1.1-3.8c-0.4-1-1.1-1.9-1.8-2.7
				c0,0,0,0,0,0c1.2,3.3,1.8,6.7,2.2,10.1c0.1,0.4,0.1,0.9,0.5,1.2c0.2,0.2,0.6,0.2,0.9,0.2c5.8,0.5,11.6,0.3,17.3-0.6
				c-0.1-2.3,0.8-4.6,1.7-6.7C101.5,95.1,101.4,95.3,101.3,95.4z"/>
		</g>
	</g>
</g>
<g>
	<g>
		<g>
			<path class="st4" d="M188.4,59c-0.5,2.5-1.4,4.8-2.7,7c-0.6,1-1.4,2-2.3,2.7c2.3,2.2,5.2,3.5,8.1,4.7c0.6,0.3,1.2,0.5,1.8,0.8
				c-1-3.4-0.4-7.3,1.7-10.1"/>
		</g>
		<g>
			<path class="st5" d="M193.9,65.6c-0.5,0.1-1,0.2-1.6,0.1c-1.9-0.2-3.4-1.7-4.7-3.2c-0.2-0.2-0.3-0.4-0.3-0.7
				c0-0.2,0.1-0.4,0.2-0.5c0.6-1.1,1.2-2.1,1.8-3.2c0-0.1,0.1-0.1,0.2-0.1c0,0,0,0,0.1,0.1c1.6,2.3,2.6,5.1,4.8,6.7"/>
		</g>
		<g>
			<path class="st4" d="M202.3,48.9c0.2,1.4,0.2,2.8-0.1,4.1c-0.1,0.5-0.3,0.9-0.3,1.4c0,1.2,0.8,2.3,1.8,2.9
				c0.1,0.1,0.2,0.2,0.3,0.3c0.1,0.4-0.5,0.6-0.8,0.8c-0.7,0.3-0.9,1.2-1,1.9c-0.4,1.6-1,3.2-1.6,4.7c-0.2,0.5-0.4,1-0.9,1.2
				c-0.3,0.1-0.5,0-0.8,0c-1.9-0.3-3.8-0.6-5.4-1.7c-2-1.4-3.9-3.9-4.7-6.2c-0.7-1.9-0.3-3.9-0.4-5.9c-0.1-2,0.3-4.1,1.6-5.7"/>
		</g>
		<g>
			<path class="st5" d="M202,60.8c-1,0.2-2.2,0-3.1-0.5c0.1,0.2,0.3,0.6,0.5,0.8c0.2,0.2,0.3,0.3,0.6,0.5c0.2,0.2,0.4,0.2,0.7,0.4
				c0.3,0.1,0.7,0.2,1,0.1"/>
		</g>
		<g>
			<path class="st5" d="M190.7,55c1.3,0.9,3.4,0.5,4.3-0.9c0.3-0.5,0.5-1.1,1.1-1.4c0.3-0.1,0.6-0.1,0.9-0.1c1.3,0,2.6-0.2,3.7-0.8
				c0.5-0.3,1-0.6,1.2-1.1c0.2-0.6,0.1-1.3-0.3-1.8c-0.4-0.5-0.9-0.9-1.4-1.3"/>
		</g>
		<path class="st9" d="M199.9,54.1c0-0.1-0.1-0.1-0.1-0.1c-0.1-0.1-0.3-0.1-0.3,0.1c0,0.3-0.1,0.6-0.1,0.9c0,0.1,0.2,0.2,0.3,0.1
			C199.9,54.8,200,54.5,199.9,54.1z"/>
		<circle class="st5" cx="196.2" cy="57.9" r="1.3"/>
		<g>
			<path class="st15" d="M201.4,52.2c-1-0.1-2.1-0.2-3,0.4c-0.2,0.1,0,0.3,0.1,0.3c0.9-0.5,1.9-0.4,2.9-0.3
				C201.6,52.5,201.6,52.3,201.4,52.2L201.4,52.2z"/>
		</g>
		<g>
			<g>
				<path class="st16" d="M186.3,62.5c1.6,0,2.6-1.1,3.5-2.5c1-1.6,0.7-3.4,0.2-4.9c0.9,0.4,2,0.2,2.8-0.4c0.8-0.5,1.4-1.4,1.6-2.4
					c0.1-0.2,0.1-0.4,0.3-0.5c0.2-0.1,0.4,0,0.6,0c2.9,1,6.2,0.6,8.8-0.9c1.1-0.7,2.1-1.5,2.8-2.6s0.9-2.5,0.5-3.7
					c-0.3-1.1-1.2-2.1-2.3-2.6c-1.1-0.5-2.4-0.4-3.5,0.2c0.6-1.5,0-3.2-1.3-4.2c-1.2-1-2.9-1.4-4.4-1.4c-1.8,0-3.7,0.4-5.2,1.4
					c-1.5,1-2.6,2.7-2.7,4.5c-2-0.8-4.3-0.6-6.1,0.5c-1.8,1.2-2.9,3.3-3,5.4c0,0.7,0.1,1.5,0.4,2.1c0.7,1.7,2.4,2.7,3.9,3.6
					c-0.4,1.6-0.8,3.4-0.4,5S184.6,62.4,186.3,62.5"/>
			</g>
			<g>
				<path class="st15" d="M207.3,44.7c0-0.2-0.1-0.3-0.2-0.5c0.1,1.1-0.2,2.3-0.8,3.2c-0.6,0.8-1.5,1.4-2.5,1.9
					c-1.9,0.9-4.1,1.3-6.2,1.1c-1.2-0.1-2.6-0.4-3.6,0.3c-1,0.7-1.4,2.1-2.5,2.5c-0.6,0.2-1.4,0.1-2,0.4c-0.9,0.5-1,1.7-1.5,2.5
					c-0.2,0.3-0.6,0.6-1,0.6c-0.5,0-0.8-0.5-1-1c-0.3-1.2,0.1-2.5-0.7-3.5c-0.5-0.6-1.3-0.8-2.1-1.2c-0.8-0.4-1.6-1-2.1-1.7
					c-0.7-1.2-0.8-2.7-0.4-4c0.3-0.9,0.8-1.7,1.5-2.4c-0.2,0.1-0.3,0.2-0.5,0.3c-1.8,1.2-2.9,3.3-3,5.4c0,0.7,0.1,1.5,0.4,2.1
					c0.7,1.7,2.4,2.7,3.9,3.6c-0.4,1.6-0.8,3.4-0.4,5c0.4,1.7,1.7,3.2,3.4,3.2c1.6,0,2.6-1.1,3.5-2.5c1-1.6,0.7-3.4,0.2-4.9
					c0.9,0.4,2,0.2,2.8-0.4c0.8-0.5,1.4-1.4,1.6-2.4c0.1-0.2,0.1-0.4,0.3-0.5c0.2-0.1,0.4,0,0.6,0c2.9,1,6.2,0.6,8.8-0.9
					c1.1-0.7,2.1-1.5,2.8-2.6S207.7,45.9,207.3,44.7z"/>
			</g>
			<g>
				<path class="st15" d="M191,44.2c0,0.2,0.2,0.4,0.4,0.5c1.4,1,3.3,1,5,0.4c1.6-0.5,3.1-1.6,4.5-2.6c0.3,0.5,0.1,1.2-0.2,1.7
					c-0.4,0.5-0.9,0.8-1.4,1.2c-0.9,0.6-1.8,1.2-2.8,1.5c-1,0.4-2.1,0.5-3.2,0.2S191.2,45.2,191,44.2"/>
			</g>
			<g>
				<path class="st15" d="M188.4,44.9c0.4,0.8,0.1,2-0.2,2.9c-0.3,0.9-1,1.7-1.4,2.6c0,0.1-0.1,0.2,0,0.3c0,0.1,0.1,0.1,0.2,0.1
					c0.5,0.1,1.1,0,1.6-0.2c0.9-0.5,1.4-1.7,1.3-2.8C189.7,46.7,189.1,45.7,188.4,44.9"/>
			</g>
			<g>
				<g>
					<path class="st15" d="M182.5,45.2c-0.2,0.4-0.4,0.7-0.7,1c0,0,0,0.1,0.1,0.1C182.2,45.9,182.4,45.6,182.5,45.2
						C182.6,45.2,182.5,45.1,182.5,45.2L182.5,45.2z"/>
				</g>
				<g>
					<path class="st15" d="M183.4,45.8c-0.1,0.2-0.2,0.3-0.2,0.5c0,0,0,0.1,0.1,0C183.3,46.1,183.4,46,183.4,45.8
						C183.5,45.8,183.4,45.7,183.4,45.8L183.4,45.8z"/>
				</g>
				<g>
					<path class="st15" d="M181.2,48.2c-0.1,0.3-0.1,0.6-0.1,0.9c0,0.1,0.1,0.1,0.1,0C181.2,48.8,181.2,48.6,181.2,48.2
						C181.3,48.2,181.3,48.2,181.2,48.2L181.2,48.2z"/>
				</g>
				<g>
					<path class="st15" d="M182.6,49.6c-0.1,0.3-0.1,0.6-0.1,1c0,0.1,0.1,0.1,0.1,0C182.6,50.2,182.6,49.9,182.6,49.6
						C182.7,49.5,182.6,49.5,182.6,49.6L182.6,49.6z"/>
				</g>
				<g>
					<path class="st15" d="M184.1,49c0,0.3,0.1,0.7,0.1,1c0,0.1,0.1,0.1,0.1,0C184.2,49.7,184.2,49.4,184.1,49
						C184.1,49,184.1,49,184.1,49L184.1,49z"/>
				</g>
				<g>
					<path class="st15" d="M185.7,47.2c0.2-0.5,0.4-0.9,0.7-1.3c0,0,0-0.1-0.1-0.1C186,46.3,185.8,46.7,185.7,47.2
						C185.6,47.2,185.7,47.3,185.7,47.2L185.7,47.2z"/>
				</g>
				<g>
					<path class="st15" d="M184.9,44.6c0.3-0.2,0.5-0.5,0.8-0.7c0,0,0-0.1-0.1-0.1C185.3,44.1,185.1,44.3,184.9,44.6
						C184.8,44.6,184.8,44.6,184.9,44.6L184.9,44.6z"/>
				</g>
				<g>
					<path class="st15" d="M182.8,52.1c0.2,0.3,0.4,0.6,0.6,0.9c0,0,0.1,0,0.1,0C183.3,52.7,183.1,52.4,182.8,52.1
						C182.8,52,182.8,52.1,182.8,52.1L182.8,52.1z"/>
				</g>
				<g>
					<path class="st15" d="M185.3,50.6c0,0.4,0,0.7,0.1,1.1c0,0.1,0.1,0,0.1,0C185.4,51.3,185.4,50.9,185.3,50.6
						C185.4,50.5,185.3,50.5,185.3,50.6L185.3,50.6z"/>
				</g>
				<g>
					<path class="st15" d="M184.6,55.8c0.1,0.3,0.2,0.7,0.2,1c0,0.1,0.1,0,0.1,0C184.8,56.5,184.7,56.2,184.6,55.8
						C184.7,55.8,184.6,55.8,184.6,55.8L184.6,55.8z"/>
				</g>
				<g>
					<path class="st15" d="M185.9,57c0.1,0.2,0.2,0.5,0.3,0.7c0,0,0.1,0,0.1,0C186.2,57.5,186.1,57.3,185.9,57
						C185.9,57,185.9,57,185.9,57L185.9,57z"/>
				</g>
				<g>
					<path class="st15" d="M188.9,43.4c0-0.4,0.1-0.7,0.3-1c0,0,0-0.1-0.1-0.1C188.9,42.6,188.8,43,188.9,43.4
						C188.8,43.4,188.9,43.4,188.9,43.4L188.9,43.4z"/>
				</g>
				<g>
					<path class="st15" d="M190.9,40.3c0.2-0.3,0.4-0.5,0.6-0.7c0,0,0-0.1-0.1-0.1C191.2,39.8,191,40,190.9,40.3
						C190.8,40.3,190.9,40.4,190.9,40.3L190.9,40.3z"/>
				</g>
				<g>
					<path class="st15" d="M193.7,38.5c0.3-0.2,0.5-0.3,0.9-0.4c0,0,0-0.1,0-0.1C194.2,38.1,193.9,38.3,193.7,38.5
						C193.6,38.5,193.7,38.6,193.7,38.5L193.7,38.5z"/>
				</g>
				<g>
					<path class="st15" d="M196,38.1c0.5-0.1,0.9-0.1,1.4-0.2c0.1,0,0.1-0.1,0-0.1C196.9,37.9,196.4,38,196,38.1
						C195.9,38.1,195.9,38.2,196,38.1L196,38.1z"/>
				</g>
				<g>
					<path class="st15" d="M192.5,43.1c-0.3-0.3,1-1.1,1.3-1.2c0,0,0-0.1,0-0.1C193.4,41.9,192,42.7,192.5,43.1
						C192.5,43.2,192.5,43.1,192.5,43.1L192.5,43.1z"/>
				</g>
				<g>
					<path class="st15" d="M195.6,41c0.5-0.1,1-0.2,1.5-0.2c0.1,0,0-0.1,0-0.1C196.7,40.8,196.1,40.9,195.6,41
						C195.6,41,195.6,41,195.6,41L195.6,41z"/>
				</g>
				<g>
					<path class="st15" d="M197.8,39.7c0.4,0,0.8,0,1.2,0.1c0.1,0,0.1-0.1,0-0.1C198.6,39.6,198.2,39.6,197.8,39.7
						C197.8,39.6,197.8,39.7,197.8,39.7L197.8,39.7z"/>
				</g>
				<g>
					<path class="st15" d="M195.7,39.4c0.3-0.1,0.6-0.1,0.9,0c0.1,0,0.1-0.1,0-0.1C196.2,39.3,195.9,39.3,195.7,39.4
						C195.6,39.3,195.6,39.4,195.7,39.4L195.7,39.4z"/>
				</g>
				<g>
					<path class="st15" d="M195.8,42.6c0.3,0.1,0.6,0.1,0.9,0.1c0.1,0,0.1-0.1,0-0.1C196.4,42.6,196.1,42.6,195.8,42.6
						C195.8,42.5,195.8,42.6,195.8,42.6L195.8,42.6z"/>
				</g>
				<g>
					<path class="st15" d="M199.1,41.8c0.3,0.1,0.6,0.2,1,0.3c0,0,0.1-0.1,0-0.1C199.7,41.9,199.4,41.8,199.1,41.8
						C199,41.7,199,41.7,199.1,41.8L199.1,41.8z"/>
				</g>
				<g>
					<path class="st15" d="M199.9,39.3c0.2,0.2,0.3,0.3,0.5,0.4c0,0,0.1-0.1,0-0.1C200.3,39.5,200.1,39.4,199.9,39.3
						C199.9,39.2,199.9,39.3,199.9,39.3L199.9,39.3z"/>
				</g>
				<g>
					<path class="st15" d="M192,40.9c0.1,0,0.3,0,0.4,0c0.1,0,0.1-0.1,0-0.1C192.3,40.8,192.2,40.8,192,40.9
						C192,40.8,192,40.9,192,40.9L192,40.9z"/>
				</g>
				<g>
					<path class="st15" d="M193.7,43.7c0.2,0,0.3-0.1,0.5-0.1c0,0,0-0.1,0-0.1C194,43.5,193.9,43.5,193.7,43.7
						C193.6,43.6,193.7,43.7,193.7,43.7L193.7,43.7z"/>
				</g>
				<g>
					<path class="st15" d="M202.8,43.2c0.2,0.1,0.4,0.3,0.4,0.6c0,0.1,0.1,0.1,0.1,0C203.2,43.5,203.1,43.3,202.8,43.2
						C202.8,43.1,202.7,43.2,202.8,43.2L202.8,43.2z"/>
				</g>
				<g>
					<path class="st15" d="M204.4,43.3c0,0.4,0,0.9-0.1,1.3c0,0.1,0.1,0.1,0.1,0C204.4,44.2,204.4,43.7,204.4,43.3
						C204.4,43.2,204.4,43.2,204.4,43.3L204.4,43.3z"/>
				</g>
				<g>
					<path class="st15" d="M205.5,43.9c0,0.4,0,0.7,0,1.1c0,0.1,0.1,0.1,0.1,0C205.5,44.6,205.5,44.3,205.5,43.9
						C205.5,43.8,205.5,43.8,205.5,43.9L205.5,43.9z"/>
				</g>
				<g>
					<path class="st15" d="M202.7,45.7c-0.1,0.3-0.2,0.5-0.3,0.8c0,0,0.1,0.1,0.1,0C202.5,46.2,202.6,46,202.7,45.7
						C202.7,45.7,202.7,45.6,202.7,45.7L202.7,45.7z"/>
				</g>
				<g>
					<path class="st15" d="M203.7,46.6c-0.2,0.1-0.4,0.3-0.6,0.5c0,0,0,0.1,0.1,0.1C203.3,47,203.5,46.8,203.7,46.6
						C203.8,46.7,203.7,46.6,203.7,46.6L203.7,46.6z"/>
				</g>
				<g>
					<path class="st15" d="M204.6,47.1c-0.1,0.3-0.3,0.6-0.5,0.9c0,0,0,0.1,0.1,0.1C204.4,47.7,204.6,47.5,204.6,47.1
						C204.7,47.1,204.6,47,204.6,47.1L204.6,47.1z"/>
				</g>
				<g>
					<path class="st15" d="M199.4,47.7c0.2-0.1,0.4-0.1,0.6-0.2c0,0,0-0.1,0-0.1C199.8,47.5,199.6,47.6,199.4,47.7
						C199.3,47.7,199.3,47.8,199.4,47.7L199.4,47.7z"/>
				</g>
				<g>
					<path class="st15" d="M199.7,46.1c0.2,0,0.4-0.1,0.7-0.1c0.1,0,0-0.1,0-0.1C200.1,46,199.9,46,199.7,46.1
						C199.6,46.1,199.6,46.1,199.7,46.1L199.7,46.1z"/>
				</g>
				<g>
					<path class="st15" d="M196.4,48.6c0.2,0.2,0.4,0.2,0.7,0.1c0,0,0-0.1,0-0.1C196.9,48.7,196.6,48.7,196.4,48.6
						C196.4,48.5,196.4,48.6,196.4,48.6L196.4,48.6z"/>
				</g>
				<g>
					<path class="st15" d="M200.3,48.6c0.4,0,0.7-0.1,1.1-0.2c0,0,0-0.1,0-0.1C201,48.5,200.7,48.5,200.3,48.6
						C200.3,48.6,200.3,48.6,200.3,48.6L200.3,48.6z"/>
				</g>
				<g>
					<path class="st15" d="M198.2,50.1c0.3,0,0.7-0.1,1-0.1c0.1,0,0.1-0.1,0-0.1C198.9,50,198.5,50,198.2,50.1
						C198.1,50,198.1,50.1,198.2,50.1L198.2,50.1z"/>
				</g>
				<g>
					<path class="st15" d="M202.2,49c0.1-0.1,0.3-0.1,0.4-0.2c0,0,0-0.1,0-0.1C202.5,48.7,202.3,48.8,202.2,49
						C202.2,48.9,202.2,49,202.2,49L202.2,49z"/>
				</g>
				<g>
					<path class="st15" d="M193.4,49.2c0.4-0.2,0.8-0.4,1.3-0.5c0,0,0-0.1,0-0.1C194.2,48.7,193.8,48.9,193.4,49.2
						C193.3,49.1,193.4,49.2,193.4,49.2L193.4,49.2z"/>
				</g>
				<g>
					<path class="st15" d="M190.2,51.7c0.2-0.2,0.3-0.3,0.6-0.3c0.1,0,0-0.1,0-0.1C190.5,51.3,190.3,51.4,190.2,51.7
						C190.1,51.6,190.2,51.7,190.2,51.7L190.2,51.7z"/>
				</g>
				<g>
					<path class="st15" d="M192.2,51.5c0.2-0.1,0.3-0.2,0.5-0.3c0,0,0-0.1,0-0.1C192.5,51.3,192.3,51.4,192.2,51.5
						C192.1,51.5,192.1,51.6,192.2,51.5L192.2,51.5z"/>
				</g>
				<g>
					<path class="st15" d="M195.1,49.9c0.1,0,0.2,0,0.3-0.1c0,0,0-0.1,0-0.1C195.3,49.8,195.2,49.8,195.1,49.9
						C195,49.8,195.1,49.9,195.1,49.9L195.1,49.9z"/>
				</g>
				<g>
					<path class="st15" d="M190,53.6c0.2-0.2,0.3-0.3,0.6-0.4c0,0,0-0.1,0-0.1C190.3,53.2,190.1,53.4,190,53.6
						C189.9,53.6,190,53.7,190,53.6L190,53.6z"/>
				</g>
			</g>
		</g>
		<g>
			<g>
				<path class="st4" d="M191.8,56.2c0.1-0.6-0.2-1.2-0.6-1.7s-1-0.7-1.6-0.7c-0.2,0-0.5,0-0.7,0.2c-0.5,0.3-0.7,1-0.6,1.7
					c0.2,1.5,1.4,2.9,2.8,3.3"/>
			</g>
			<g>
				<path class="st5" d="M191.5,55.2c-0.2-0.5-0.9-0.8-1.4-0.7c-0.5,0.1-0.9,0.6-0.9,1.1c0,0.3,0.1,0.6,0.3,0.9c0.2,0.5,0.6,1,1.1,1
					c0.5,0,0.9-0.4,1-0.9C191.7,56.1,191.6,55.6,191.5,55.2"/>
			</g>
		</g>
	</g>
	<g>
		<path class="st4" d="M145,118.9c-0.9,1-2,2.1-1.9,3.4c0,0.5,0.2,1,0.2,1.5c0.1,1.1-0.5,2.1-1.4,2.7c-0.3,0.2-0.6,0.3-0.8,0
			c-0.1-0.2-0.1-0.4,0-0.6c0.1-0.4,0-0.9-0.2-1.2c0-0.1-0.1-0.2-0.2-0.2c-0.2-0.1-0.5,0-0.7,0.2c-0.2,0.2-0.2,0.4-0.4,0.6
			c-0.2,0.2-0.4,0.3-0.6,0.4c-0.6,0.4-0.5,1-0.7,1.7c-0.5,0.3-1.3-0.2-1.4-0.7c-0.3,0.3-0.7,0.4-1.1,0.2c-0.4-0.2-0.6-0.6-0.5-1
			c-0.2,0.2-0.4,0.3-0.6,0.2c-0.2-0.1-0.4-0.4-0.2-0.6c-0.4,0.1-0.7-0.5-0.6-1c0.1-0.6,0.5-1.1,0.8-1.6c1.4-1.8,3-3.4,4.7-4.7
			c0.9-0.7,1.9-1.4,2.5-2.4"/>
	</g>
	<g>
		<g>
			<path class="st17" d="M159.9,199.3c-0.5,1.1-1.4,2-2.2,3c-1.5,1.9-2.7,4.1-3.3,6.4c-0.1,0.3-0.2,0.6-0.1,1c0.2,0.6,0.8,0.8,1.3,1
				c2.3,0.9,4.5,1.8,6.8,2.6c0.4,0.1,0.7,0.3,1.1,0.4c1,0.4,2,0.8,3,1.2c1,0.4,1.9,0.7,2.9,1c1.8,0.5,3.7,0.8,5.6,0.6
				c0.1,0,0.3,0,0.4-0.1c0.1-0.1,0.1-0.3,0.1-0.5c0-1.1-0.5-2.2-1.2-3.1c-0.7-0.9-1.6-1.6-2.4-2.3c-1.4-1.1-2.7-2.2-4.1-3.3
				c-0.7-0.5-1.3-1.1-1.8-1.8c-0.5-0.7-0.7-1.6-0.4-2.4"/>
		</g>
		<g>
			<path class="st18" d="M165.6,204.2c-0.7,0.5-1.3,1-2,1.5c-0.1,0.1,0,0.3,0.1,0.2c0.7-0.5,1.4-1,2.1-1.6
				C165.9,204.3,165.7,204.1,165.6,204.2L165.6,204.2z"/>
		</g>
		<g>
			<path class="st18" d="M166.6,205.9c-0.8,0.6-1.5,1.4-2.1,2.2c-0.1,0.1,0.1,0.3,0.2,0.1c0.6-0.8,1.3-1.5,2.1-2.1
				C166.9,206,166.7,205.8,166.6,205.9L166.6,205.9z"/>
		</g>
		<g>
			<path class="st18" d="M168,207.4c-0.5,0.6-1,1.2-1.3,1.8c-0.1,0.1,0.1,0.3,0.2,0.1c0.3-0.7,0.7-1.3,1.3-1.8
				C168.3,207.5,168.1,207.3,168,207.4L168,207.4z"/>
		</g>
		<g>
			<path class="st18" d="M169.4,208.5c-0.4,0.5-0.7,1-0.9,1.6c-0.1,0.1,0.2,0.2,0.2,0.1c0.2-0.6,0.5-1.1,0.9-1.6
				C169.7,208.5,169.5,208.3,169.4,208.5L169.4,208.5z"/>
		</g>
		<g>
			<path class="st18" d="M174.9,213.3c0,0.3-0.1,0.6-0.3,0.8c-0.3,0.4-0.7,0.6-1.2,0.8c-1,0.3-2,0.4-3,0.1c-1.2-0.3-2.3-1.1-3.4-1.8
				c-2.8-1.6-6.1-2.1-9.1-3.4c-0.6-0.3-1.3-0.6-1.6-1.2c-0.2-0.4-0.2-0.9-0.2-1.4c0.1-1.4,0.6-2.7,1.4-3.8c0.4-0.6,1-1.1,1.4-1.7
				c0.4-0.5,0.6-1.2,0.7-1.8c-0.5,0.8-1.2,1.5-1.7,2.2c-1.5,1.9-2.7,4.1-3.3,6.4c-0.1,0.3-0.2,0.6-0.1,1c0.2,0.6,0.8,0.8,1.3,1
				c2.3,0.9,4.5,1.8,6.8,2.6c0.4,0.1,0.7,0.3,1.1,0.4c1,0.4,2,0.8,3,1.2c1,0.4,1.9,0.7,2.9,1c1.8,0.5,3.7,0.8,5.6,0.6
				c0.1,0,0.3,0,0.4-0.1c0.1-0.1,0.1-0.3,0.1-0.5C175.7,214.9,175.4,214.1,174.9,213.3z"/>
		</g>
	</g>
	<g>
		<g>
			<path class="st17" d="M207.9,200.5c0.1,1.2-0.2,2.4-0.4,3.6c-0.4,2.3-0.3,4.7,0.3,7c0.1,0.3,0.2,0.6,0.4,0.8
				c0.4,0.4,1.1,0.3,1.6,0.2c2.3-0.4,4.7-0.7,7-1.1c0.4-0.1,0.7-0.1,1.1-0.2c1-0.2,2.1-0.3,3.1-0.5c1-0.2,2-0.3,2.9-0.6
				c1.8-0.4,3.6-1.1,5-2.2c0.1-0.1,0.2-0.2,0.3-0.3c0-0.2,0-0.3-0.1-0.5c-0.5-1-1.5-1.6-2.5-2c-1-0.4-2.1-0.6-3.2-0.8
				c-1.7-0.3-3.4-0.5-5-0.8c-0.8-0.1-1.7-0.3-2.4-0.6s-1.5-1.9-1.7-2.7"/>
		</g>
		<g>
			<path class="st18" d="M215.1,201.9c-0.3,0.8-0.6,1.5-1,2.3c-0.1,0.1,0.1,0.3,0.2,0.1c0.4-0.8,0.7-1.5,1-2.3
				C215.4,201.9,215.1,201.8,215.1,201.9L215.1,201.9z"/>
		</g>
		<g>
			<path class="st18" d="M216.7,202.8c-0.4,0.9-0.6,1.9-0.7,2.9c0,0.2,0.2,0.2,0.2,0c0.1-1,0.3-1.9,0.7-2.8
				C217,202.7,216.8,202.7,216.7,202.8L216.7,202.8z"/>
		</g>
		<g>
			<path class="st18" d="M218.7,203.4c-0.2,0.7-0.2,1.5-0.2,2.2c0,0.2,0.2,0.2,0.2,0c0-0.7,0-1.4,0.2-2.1
				C218.9,203.3,218.7,203.3,218.7,203.4L218.7,203.4z"/>
		</g>
		<g>
			<path class="st18" d="M220.4,203.6c-0.1,0.6-0.1,1.2,0,1.8c0,0.2,0.3,0.1,0.2-0.1c-0.1-0.6-0.1-1.2,0-1.8
				C220.7,203.5,220.4,203.5,220.4,203.6L220.4,203.6z"/>
		</g>
		<g>
			<path class="st18" d="M227.4,205.1c0.1,0.2,0.2,0.5,0.2,0.8c-0.1,0.5-0.3,0.9-0.6,1.3c-0.7,0.8-1.5,1.3-2.5,1.6
				c-1.2,0.3-2.5,0.2-3.8,0.2c-3.2,0-6.2,1.2-9.4,1.6c-0.7,0.1-1.4,0.1-2-0.2c-0.4-0.3-0.6-0.7-0.8-1.1c-0.6-1.2-0.8-2.6-0.6-3.9
				c0.1-0.7,0.3-1.4,0.3-2.1c0.1-0.6,0-1.3-0.3-1.8c-0.1,0.9-0.3,1.8-0.4,2.7c-0.4,2.3-0.3,4.7,0.3,7c0.1,0.3,0.2,0.6,0.4,0.8
				c0.4,0.4,1.1,0.3,1.6,0.2c2.3-0.4,4.7-0.7,7-1.1c0.4-0.1,0.7-0.1,1.1-0.2c1-0.2,2.1-0.3,3.1-0.5c1-0.2,2-0.3,2.9-0.6
				c1.8-0.4,3.6-1.1,5-2.2c0.1-0.1,0.2-0.2,0.3-0.3c0-0.2,0-0.3-0.1-0.5C228.8,206,228.1,205.5,227.4,205.1z"/>
		</g>
	</g>
	<g>
		<path class="st9" d="M197,119.6c7,17.4,10.2,36.2,13.3,54.8c1.5,8.7,2.9,17.4,4.4,26c-1.6,0.4-3.2,0.9-4.9,1.3c-1,0.3-2,0.5-2.9,0
			c-0.6-0.4-1-1-1.4-1.7c-3.4-6-6.8-12-9-18.6c-1.5-4.4-2.4-9.1-3.6-13.6c-1.4-5.3-3.3-10.5-5.6-15.4"/>
	</g>
	<g>
		<path class="st0" d="M176.5,119.2c-3.2,10.3-0.3,21.3-0.2,32c0.1,9.8-2.2,19.6-6.6,28.3c-3.5,6.9-8.4,13.3-10.3,20.8
			c1.9,0.8,3.7,1.7,5.6,2.5c0.5,0.2,1,0.4,1.5,0.5c1.3,0.1,2.5-0.8,3.4-1.7c7.4-6.8,13.4-15,17.7-24c1-2.2,1.9-4.4,2.6-6.7
			c0.9-3.1,1.4-6.4,1.9-9.6c1.2-8.4,2.5-16.8,3.7-25.2c0.5-3.2,1-6.5,1.2-9.8c0.3-3.8,0.2-7.8-1.5-11.3"/>
	</g>
	<g>
		<path class="st5" d="M138.3,127.3c0-0.2-0.2-0.4-0.4-0.5c-0.2-0.1-0.4-0.2-0.6-0.4c-0.3-0.3-0.4-0.8-0.3-1.2
			c0-0.1,0.1-0.1,0.1-0.2c0.1,0,0.2,0,0.3,0c0.2,0,0.5,0.1,0.7,0.2c-0.2-0.3-0.3-0.6-0.1-0.9s0.6-0.4,0.7-0.1c0-0.2-0.1-0.4-0.1-0.5
			s0.2-0.4,0.3-0.4c0.2,0,0.4,0.2,0.5,0.4c0-0.2,0-0.4,0-0.7c0-0.1,0-0.1,0-0.2c0.1-0.1,0.2-0.1,0.3,0c0.4,0.2,0.7,0.6,0.9,1
			c0.1,0.2,0.2,0.4,0.2,0.6c0,0.2-0.2,0.4-0.4,0.5c0.1,0.2,0.1,0.4,0.1,0.6c0,0.2-0.2,0.4-0.4,0.4c-0.2,0-0.3-0.1-0.5,0
			c0.2,0.2,0.3,0.5,0.2,0.7c-0.2,0.2-0.5,0.1-0.7,0.1c0,0.3,0,0.6-0.2,0.7c-0.1,0.1-0.2,0.1-0.3,0.1
			C138.6,127.6,138.5,127.6,138.3,127.3"/>
	</g>
	<g>
		<path class="st5" d="M223.9,119.6c0.9,0.5,1.5,1.2,2.1,1.9c1.3,1.5,2.6,3,3.9,4.4c0.1,0.1,0.2,0.3,0.4,0.3c0.1,0,0.3,0,0.4-0.1
			c1.3-0.6,2.5-1.3,3.7-2c0.1-0.1,0.2-0.1,0.2-0.2c0-0.1,0-0.2-0.1-0.3c-0.6-1.1-1.6-1.8-2.6-2.5c-2.2-1.5-4.5-3-6.7-4.4"/>
	</g>
	<g>
		<g>
			<path class="st19" d="M194.9,80.2c1.3,3.6,3.1,7,4.9,10.4c1.5,2.8,3.1,5.7,5.4,7.9c0.8,0.8,1.7,1.5,2.6,2.3
				c5.8,4.6,11.4,9.4,17,14.3c0.1,0.1,0.3,0.3,0.4,0.5c0.2,0.4-0.1,0.8-0.4,1.2c-1.1,1.3-2.4,2.8-4.1,2.7c-0.8,0-1.5-0.4-2.1-0.8
				c-9.8-5.3-18.4-12.6-25.2-21.4c-0.4-0.5-0.8-1.1-1.2-1.6c-1.9-2.9-2.4-6.7-1.4-10"/>
		</g>
		<g>
			<path class="st20" d="M221.3,119.4c1.1-0.7,2-1.6,2.8-2.6c0.3-0.4,0.6-0.9,1-1.3c0.1-0.1,0.1-0.1,0.2-0.2c0.1,0,0.2,0.1,0.3,0.1
				c0.4,0.3,0.8,0.7,1.2,1c0.2,0.2,0.4,0.3,0.4,0.6c0.1,0.3,0,0.6-0.2,0.8c-0.3,0.7-0.7,1.4-1.2,2c-0.3,0.4-0.7,0.9-1.3,0.9
				c-0.4,0-0.8-0.1-1.2-0.3C222.5,120.1,222.1,120,221.3,119.4"/>
		</g>
		<g>
			<g>
				<path class="st19" d="M224,117.8c0.4,0.3,0.7,0.5,1.1,0.8c0.1,0.1,0.3-0.1,0.2-0.2c-0.4-0.3-0.7-0.5-1.1-0.8
					C224.1,117.5,223.9,117.7,224,117.8L224,117.8z"/>
			</g>
			<g>
				<path class="st19" d="M222.9,118.9c0.4,0.3,0.7,0.5,1.1,0.8c0.1,0.1,0.3-0.1,0.2-0.2c-0.4-0.3-0.7-0.5-1.1-0.8
					C223,118.6,222.8,118.8,222.9,118.9L222.9,118.9z"/>
			</g>
			<g>
				<path class="st19" d="M224.7,116.6c0.4,0.2,0.8,0.3,1.2,0.5c0.2,0.1,0.3-0.2,0.1-0.2c-0.4-0.2-0.8-0.3-1.2-0.5
					C224.6,116.3,224.5,116.5,224.7,116.6L224.7,116.6z"/>
			</g>
		</g>
		<g>
			<path class="st20" d="M184.9,67c1.6,2.5,4.4,4,7.2,4.9c0.3,0.1,0.7,0.2,0.9,0.4c0.1,0.2,0.2,0.4,0.3,0.6c0.7,2.2,1.3,4.3,2,6.5
				c0.4,1.4,0.8,2.7,1,4.1c0.2,1.3,0.2,2.5,0.3,3.8c0.1,4.1,0.2,8.2,0.4,12.3c0.2,6.6,0.4,13.2,0.5,19.7c0,0.3,0,0.5-0.2,0.7
				c-0.2,0.1-0.4,0.2-0.6,0.2c-4.9,0.1-9.8,0.3-14.8,0.4c-1.6,0-3.3,0.1-4.8-0.6c-0.3-0.1-0.7-0.3-0.9-0.6c-0.4-0.6-0.2-1.4-0.2-2.1
				c0.1-2-0.9-3.9-1.4-5.9c-0.5-1.8-0.6-3.8-0.7-5.7c-0.1-3.2-0.2-6.4,0-9.5c0.4-7,0.6-11.5,3.1-18.1c0.6-1.5,3.3-5.7,4.2-7.1
				C182.2,69.8,183.6,68.2,184.9,67"/>
		</g>
		<g class="st21">
			<path class="st19" d="M194.6,117.8c-1.8,0.2-3.6,0.4-5.3,0.6c-3.8,0.4-7.7,0.8-11.4-0.2c-0.5-0.1-0.9-0.3-1.4-0.3
				c-0.2,0-0.4,0-0.6,0.1c-0.1,0.6-0.1,1.1,0.2,1.6c0.2,0.3,0.6,0.5,0.9,0.6c1.5,0.6,3.2,0.6,4.8,0.6c4.9-0.1,9.8-0.3,14.8-0.4
				c0.2,0,0.5,0,0.6-0.2c0.2-0.2,0.2-0.5,0.2-0.7c0-0.6,0-1.2,0-1.7c-0.1,0-0.2,0-0.2-0.1C196.3,117.6,195.5,117.7,194.6,117.8z"/>
		</g>
		<g class="st21">
			<g>
				<path class="st22" d="M177.3,118.3c0,0.3,0,0.6,0,1c0,0.1,0.2,0.1,0.2,0c0-0.3,0-0.6,0-1C177.5,118.2,177.3,118.2,177.3,118.3
					L177.3,118.3z"/>
			</g>
			<g>
				<path class="st22" d="M178.5,118.6c0,0.3,0,0.6,0.1,1c0,0.1,0.2,0.1,0.2,0c0-0.3-0.1-0.6-0.1-0.9
					C178.7,118.5,178.5,118.5,178.5,118.6L178.5,118.6z"/>
			</g>
			<g>
				<path class="st22" d="M179.8,118.8c0,0.3,0,0.5,0.1,0.8c0,0.1,0.2,0.1,0.2,0c-0.1-0.2-0.1-0.5-0.1-0.7
					C180,118.7,179.8,118.7,179.8,118.8L179.8,118.8z"/>
			</g>
			<g>
				<path class="st22" d="M181.7,119c0,0.3,0,0.5,0.1,0.7c0,0.1,0.2,0.1,0.2,0c0-0.2-0.1-0.5-0.1-0.7
					C181.8,118.9,181.7,118.9,181.7,119L181.7,119z"/>
			</g>
			<g>
				<path class="st22" d="M183.8,119.2c0,0.2,0,0.4,0.1,0.6c0,0.1,0.2,0.1,0.2,0c0-0.2,0-0.4-0.1-0.6
					C184,119.1,183.8,119.1,183.8,119.2L183.8,119.2z"/>
			</g>
			<g>
				<path class="st22" d="M185.3,118.9c0,0.2,0,0.4,0,0.7c0,0.1,0.2,0.1,0.2,0c0-0.2,0-0.4,0-0.7
					C185.5,118.8,185.3,118.8,185.3,118.9L185.3,118.9z"/>
			</g>
			<g>
				<path class="st22" d="M186.6,118.9c0.1,0.3,0.1,0.6,0.2,0.9c0,0.1,0.2,0.1,0.2,0c0-0.3-0.1-0.6-0.2-0.9
					C186.7,118.7,186.5,118.8,186.6,118.9L186.6,118.9z"/>
			</g>
			<g>
				<path class="st22" d="M188.2,119c0,0.2,0,0.4,0,0.6c0,0.1,0.2,0.1,0.2,0c0-0.2,0-0.4,0-0.6C188.3,118.9,188.2,118.9,188.2,119
					L188.2,119z"/>
			</g>
			<g>
				<path class="st22" d="M189.4,118.8c0,0.3,0,0.5,0.1,0.8c0,0.1,0.2,0.1,0.2,0c-0.1-0.3-0.1-0.5-0.1-0.8
					C189.6,118.7,189.5,118.7,189.4,118.8L189.4,118.8z"/>
			</g>
			<g>
				<path class="st22" d="M190.9,118.7c0.1,0.3,0.1,0.6,0.2,0.9c0,0.1,0.2,0.1,0.2,0c-0.1-0.3-0.1-0.6-0.2-0.9
					C191.1,118.5,190.9,118.6,190.9,118.7L190.9,118.7z"/>
			</g>
			<g>
				<path class="st22" d="M192.3,118.4c0,0.3,0,0.6,0,0.9c0,0.1,0.2,0.1,0.2,0c0-0.3,0-0.6,0-0.9
					C192.5,118.3,192.3,118.3,192.3,118.4L192.3,118.4z"/>
			</g>
			<g>
				<path class="st22" d="M193.6,118.6c0,0.3,0.1,0.6,0.1,0.9c0,0.1,0.2,0.1,0.2,0c0-0.3-0.1-0.6-0.1-0.9
					C193.7,118.5,193.6,118.5,193.6,118.6L193.6,118.6z"/>
			</g>
			<g>
				<path class="st22" d="M194.9,118.4c-0.1,0.4-0.1,0.7,0,1.1c0,0.1,0.2,0.1,0.2,0c-0.1-0.3-0.1-0.7,0-1
					C195.1,118.3,194.9,118.3,194.9,118.4L194.9,118.4z"/>
			</g>
			<g>
				<path class="st22" d="M196.1,118.2c0,0.3,0,0.6,0.1,0.9c0,0.1,0.2,0.1,0.2,0c0-0.3,0-0.6-0.1-0.9
					C196.3,118.1,196.1,118.1,196.1,118.2L196.1,118.2z"/>
			</g>
		</g>
		<g class="st21">
			<path class="st19" d="M178.5,115.8c0.7,1.1,1.9,0.6,2.5,0.3c0.6-0.4,0.8-1.1,0.8-1.8c0-1.5-0.8-2.9-1.4-4.3
				c-1.4-3.4-1.6-7.1-1.7-10.7c0-0.7-0.1-1.4-0.7-1.8c-0.5,0.8-0.7,1.6-0.9,2.5C176,105.2,176.5,110.8,178.5,115.8"/>
		</g>
		<g class="st21">
			<path class="st19" d="M189.2,115.7c0,0.8,1.1,1.5,2.8,1.2c0.7-0.2,1.2-0.9,1.5-1.6c0.4-1,0.5-2,0.6-3.1c0.1-1.7,0.1-3.3-0.1-5
				c-0.2-1.8-0.6-3.6-0.4-5.4c0.1-1.3,0.4-2.5,0.4-3.7c0-0.4-0.1-0.9-0.4-1.1c-1.4,3.1-2.1,6.4-2.2,9.7c-0.1,2.4,0.2,4.9-0.4,7.2
				c-0.1,0.3-0.2,0.7-0.5,0.8c-0.2,0.1-0.4,0.1-0.6,0.1C189.4,115,189.2,115.4,189.2,115.7"/>
		</g>
		<g>
			<path class="st19" d="M184,72.4c1.6-0.7,3.6,0.5,4.3,2.1c0.7,1.6,0.4,3.5-0.1,5.2c-0.5,1.5-1.2,2.8-2.2,4
				c-1.6,2.1-3.8,3.8-5.9,5.5c-7.9,6.7-14.1,15-22.2,21.4c-3.2,2.5-6.6,4.7-10.3,6.5c-0.2,0.1-0.4,0.2-0.6,0.2
				c-0.2,0-0.4-0.2-0.6-0.3c-0.7-0.5-1.4-1.1-2.1-1.6c-0.4-0.3-0.9-0.7-1.1-1.2c-0.5-1,0.2-2.2,0.9-3.1c2-2.5,4.2-4.8,6.6-6.9
				c2-1.7,4.1-3.2,6-4.9c2.1-1.9,4-3.9,5.8-6c4.1-4.5,8.2-9.1,12.3-13.6c1.6-1.8,3.2-3.6,5.2-4.9C182,73.6,182.3,72.9,184,72.4"/>
		</g>
		<g>
			<path class="st20" d="M143,113.1c-1.1,0.4-1.6,1.3-2.1,2.3c-0.2,0.3-0.3,0.7-0.2,1.1c0.1,0.4,0.4,0.6,0.7,0.9
				c0.5,0.4,1.1,0.8,1.6,1.2c0.5,0.4,1.1,0.9,1.8,1.1c0.3,0.1,0.6,0.1,0.9,0c0.1-0.1,0.2-0.2,0.3-0.3c0.6-0.7,1.3-1.5,1.1-2.4
				c-0.1-0.7-0.8-1.2-1.3-1.7C144.9,114.5,144,113.8,143,113.1"/>
		</g>
		<g>
			<g>
				<path class="st19" d="M141.9,116.5c0.3-0.5,0.8-0.8,1.3-1c0.2-0.1,0.1-0.3-0.1-0.2c-0.6,0.2-1.1,0.6-1.4,1.1
					C141.6,116.5,141.8,116.7,141.9,116.5L141.9,116.5z"/>
			</g>
			<g>
				<path class="st19" d="M143.4,117.4c0.4-0.7,0.9-1.2,1.5-1.7c0.1-0.1-0.1-0.3-0.2-0.2c-0.6,0.5-1.1,1.1-1.6,1.8
					C143.1,117.4,143.3,117.6,143.4,117.4L143.4,117.4z"/>
			</g>
			<g>
				<path class="st19" d="M144.9,118c0.3-0.3,0.5-0.6,0.6-1c0.1-0.1-0.1-0.3-0.2-0.1c-0.2,0.3-0.4,0.7-0.6,0.9
					C144.6,117.9,144.7,118.1,144.9,118L144.9,118z"/>
			</g>
		</g>
		<g class="st21">
			<path class="st19" d="M188.7,79.3c0.8,0.9,0.5,2.4-0.1,3.5c-0.8,1.5-2.1,2.6-3.3,3.9c-1.7,1.7-3.3,3.5-4.8,5.4
				c-0.9,1.1-1.7,2.3-2.8,3.2c-1.1,0.9-2.5,1.5-3.9,1.3c0.6-3.4,0.8-6.8,1.5-10.1s1.8-6.7,4-9.3"/>
		</g>
	</g>
</g>
<g>
	<g>
		<g>
			<path class="st4" d="M288.3,92.3c2,1.2,4,2.4,6.1,3.6c1,0.6,1.9,1.1,2.9,1.6c1.6,0.8,3.3,1.5,5,2.1c0.4-1.7,1-4,1.4-5.7
				c1.3-5.5,1.6-7,1-10.2c-0.4-1.9,0.4-2.6,1.9-3.8c0.4,0.8,0.9,1.5,1.3,2.3c0.1,0.2,0.3,0.5,0.3,0.7c0.1,0.4-0.2,0.8-0.1,1.2
				c0.7,7.9-0.4,14.2-1.4,21.3c0,0.1-0.1,0.3-0.2,0.4c-0.1,0.1-2-0.2-2.1-0.2c-4.3-1.3-7.3-2.5-11.4-4.3c-3-1.3-5.5-3-8-5.2"/>
		</g>
		<g>
			<path class="st4" d="M275.9,71.8c0.5,3.5-0.4,7.2-2.5,10.2c-0.1,0.1-0.2,0.3-0.2,0.4c0,0.2,0.1,0.4,0.2,0.6
				c1.9,3.1,5.2,5.2,8.7,5.7c-1.5-3.3-1.4-7.2,0.3-10.4"/>
		</g>
		<g>
			<g>
				<path class="st4" d="M252.7,170.2c-2.2,6-2.8,12.4-4.3,18.6c-0.9,3.7-2.2,7.5-5.3,9.7c-0.2,0.2-0.5,0.3-0.5,0.6
					c0,0.2,0.1,0.4,0.3,0.6c3.3,4.2,7.5,7.7,12.1,10.4c-1.8-3.7-3.6-7.6-3.4-11.7c0.1-2.1,0.7-4.1,1.4-6.1
					c2.4-7.2,5.7-14.1,9.6-20.7"/>
			</g>
			<g>
				<g>
					<path class="st0" d="M245.2,196.5c-2,0.8-3.5,2.6-4.4,4.7c-0.1,0.2-0.2,0.4-0.1,0.6c0,0.2,0.2,0.4,0.3,0.5
						c1.9,2.3,4.4,3.9,6.4,6.1c0.7,0.8,1.3,1.7,2.1,2.4c0.6,0.5,1.2,1,1.8,1.4c1.4,1,2.8,1.9,4.2,2.9c0.9,0.6,2.1,1.3,3.1,0.8
						c0.2-0.1,0.3-0.2,0.4-0.4c0-0.2,0-0.3-0.1-0.5c-1.1-2.7-2.7-5.3-4.7-7.5c-0.2-0.2-0.4-0.4-0.7-0.6c-0.2-0.1-0.5-0.2-0.7-0.2
						C248.4,205.6,246,200.9,245.2,196.5"/>
				</g>
				<g>
					<path class="st9" d="M257.3,215.9c-1.1-0.6-1.9-1.7-2.8-2.5c-1.1-1.1-2.6-1.8-3.7-2.9c-0.9-0.9-1.6-2-2.4-3
						c-1-1.4-2.3-2.5-3.7-3.5c-1.1-0.7-2.2-1.4-3.1-2.3c-0.2-0.2-0.4-0.5-0.6-0.8c0,0.1-0.1,0.2-0.1,0.3c-0.1,0.2-0.2,0.4-0.1,0.6
						c0,0.2,0.2,0.4,0.3,0.5c1.9,2.3,4.4,3.9,6.4,6.1c0.7,0.8,1.3,1.7,2.1,2.4c0.6,0.5,1.2,1,1.8,1.4c1.4,1,2.8,1.9,4.2,2.9
						c0.7,0.5,1.5,0.9,2.3,1C257.5,216,257.4,215.9,257.3,215.9z"/>
				</g>
			</g>
		</g>
		<g>
			<path class="st4" d="M269.3,108.5c0.4,1.7,0.2,3.4-0.4,5.1c-0.6,1.6-1.4,3.1-2.3,4.6c-0.6,1.1-1.3,2.2-1.9,3.2
				c0.7,0.4,1.5,0.5,2.4,0.6c4.5,0.4,9.1,0.9,13.6,1.3c0.2,0,0.4,0,0.6-0.1c0.1-0.1,0.1-0.2,0.1-0.3c0.4-2.8,0.6-5.6,0.7-8.4
				c0.1-2.3,0.2-4.7,0.4-7"/>
		</g>
		<g>
			<g>
				<path class="st23" d="M281.2,86.8c2.2,0.4,4,1.8,5.7,3.2c0.9,0.7,1.7,1.4,2.6,2.1c-0.4,0.5-0.8,0.9-1.2,1.4
					c-1.4,1.6-2.7,3.2-4.1,4.8c-0.1,0.1-0.2,0.2-0.4,0.2c-0.1,0-0.2-0.1-0.3-0.1c-0.6-0.4-1.1-0.8-1.7-1.2"/>
			</g>
			<g>
				<path class="st6" d="M273.6,81.8c1.1,1.8,3,2.7,5,3.6c0.6,0.3,1.1,0.5,1.7,0.7c0.3,0.1,0.7,0.1,0.9,0.3c0.2,0.2,0.4,0.5,0.5,0.7
					c1.5,3.3,3.1,6.6,4.6,9.9c0.2,0.3,0.3,0.7,0.4,1c0.2,1.2-0.5,2.3-1.1,3.4c-1.7,3-2.9,6.4-3.4,9.9c-4.1,0.4-8.3,0.2-12.5-0.4
					c-0.1,0-0.2,0-0.3-0.1c-0.1-0.1-0.2-0.3-0.2-0.4c-1-4.5-1.4-9.1-1.2-13.6c0.1-1.4,0.2-2.9,0.5-4.3c0.2-1,0.6-1.9,0.9-2.8
					c0.5-1.3,0.1-1.7,0.6-3C270.7,85.3,272.6,82.7,273.6,81.8"/>
			</g>
			<g class="st7">
				<path class="st23" d="M285.5,101.1c-0.8,0.4-2,0.4-3,0.2s-2-0.5-3.1-0.5c-0.8-0.1-1.7,0-2.5,0.1c-0.9,0.1-1.9,0-2.8,0
					c1.4,0.6,3.1,0.9,4.5,1.5c0.8,0.3,1.4,0.8,2.2,1.1c0.8,0.3,1.7,0.5,2.5,0.3C284.4,103.6,285.2,102.3,285.5,101.1"/>
			</g>
			<g class="st7">
				<path class="st23" d="M276.1,86.7c0.6,0.8,0.6,2.5,0.4,3.5c-0.4,1.7-1,3.4-2.1,4.7c-0.2,0.2-0.5,0.5-0.8,0.6
					c-0.3,0.1-0.7,0.1-1,0.1c-1.6,0-3.4,1.5-4.5,2.6l-0.1-2l7.3-8.9L276.1,86.7z"/>
			</g>
		</g>
		<g>
			<g>
				<path class="st4" d="M291.2,181.4c2.7,5.8,6.9,10.7,10.3,16.1c2,3.2,3.8,6.8,3.2,10.5c0,0.3-0.1,0.6,0.1,0.8
					c0.1,0.2,0.4,0.2,0.6,0.2c5.3,0.5,10.7,0.1,15.9-1.4c-3.9-1.3-8-2.8-10.8-5.8c-1.4-1.5-2.4-3.4-3.4-5.3
					c-3.4-6.8-6.1-13.9-8-21.3"/>
			</g>
			<g>
				<g>
					<path class="st0" d="M304.8,205.3c-0.8,2-0.6,4.4,0.2,6.4c0.1,0.2,0.2,0.4,0.3,0.5c0.2,0.1,0.4,0.1,0.6,0.2
						c2.9,0.3,5.9-0.4,8.8-0.3c1.1,0.1,2.1,0.2,3.2,0.2c0.8,0,1.5-0.2,2.3-0.3c1.7-0.3,3.3-0.6,5-1c1.1-0.2,2.4-0.6,2.7-1.7
						c0.1-0.2,0.1-0.4,0-0.6c-0.1-0.1-0.2-0.2-0.4-0.3c-2.7-1.1-5.7-1.8-8.6-1.9c-0.3,0-0.6,0-0.9,0.1c-0.2,0.1-0.4,0.2-0.6,0.3
						C313.5,209.3,308.4,207.8,304.8,205.3"/>
				</g>
				<g>
					<path class="st9" d="M327,210.2c-1.2,0.4-2.5,0.2-3.7,0.2c-1.6,0.1-3.1,0.6-4.7,0.6c-1.3,0-2.5-0.3-3.8-0.4
						c-1.7-0.2-3.4-0.1-5.1,0.2c-1.3,0.2-2.5,0.6-3.8,0.7c-0.3,0-0.6,0-0.9-0.1c0,0.1,0.1,0.2,0.1,0.3c0.1,0.2,0.2,0.4,0.3,0.5
						c0.2,0.1,0.4,0.1,0.6,0.2c2.9,0.3,5.9-0.4,8.8-0.3c1.1,0.1,2.1,0.2,3.2,0.2c0.8,0,1.5-0.2,2.3-0.3c1.7-0.3,3.3-0.6,5-1
						c0.8-0.2,1.7-0.4,2.3-0.9C327.3,210,327.1,210.1,327,210.2z"/>
				</g>
			</g>
		</g>
		<g>
			<g>
				<path class="st4" d="M266.8,89.8c-1.2,2-2.7,3.8-4.3,5.5c-2.6,2.9-5.3,5.8-8.4,8.1c-2.1,1.5-4.3,2.7-6.4,4.1
					c-1.7,1.2-3.4,2.5-5,3.8c-2.2,1.7-4.4,3.5-6.6,5.2c-2.2,1.7-4.4,3.5-6,5.7c-0.8,1-1.4,2.1-1.9,3.2c-0.3,0.6-0.5,1.3-0.4,1.9
					c0.2,0.6,0.8,1.2,1.5,1c0.1,0.2,0.3,0.4,0.4,0.6c0.8,0.1,0.6-0.4,0.9-0.7c0.2,0.2,0.4,0.4,0.7,0.6c0.8,0.1,0.8-0.2,1.1-0.8
					c0.1-1.4,0.4-2.8,1.1-4c0.2-0.3,0.5-0.6,0.8-0.6c0.2,0,0.3,0.2,0.4,0.4c0.9,1.2,0.2,4.6,1.3,4.3c0.8-3.2,1.3-3.6,1.1-5.5
					c-0.1-0.8-0.3-1.7,0.1-2.4c0.2-0.5,0.7-0.8,1.1-1.1c5.7-4,12.7-5.8,18.1-10.2c1.3-1.1,2.5-2.3,3.7-3.5c4-4.1,8-8.2,12.1-12.3"/>
			</g>
			<g>
				<path class="st23" d="M266.1,90.2c1.3-1.4,3-3.5,4.6-4.6c0.6-0.4,1.2-0.8,1.9-0.8c0.8-0.1,1.4,0.1,2.1,0.4
					c0.6,0.3,1.3,1.1,1.4,1.8c0,0.3,0,1,0,1.2c-0.3,1-0.4,1.2-0.9,2c-0.5,0.9-1.1,1.7-1.8,2.5c-0.7,0.8-1.4,1.7-2.1,2.5
					c-0.1,0.1-0.1,0.1-0.2,0.2c-0.2,0.1-0.3-0.1-0.5-0.2C268.9,93.8,267.4,92.1,266.1,90.2"/>
			</g>
		</g>
		<g>
			<g>
				<g>
					<g>
						<path class="st12" d="M263.9,128c-1.6,7.9-3.8,15.6-6.5,23.2c-0.5,1.5-1.1,2.9-1.7,4.3c-0.7,1.7-1.6,3.3-2.4,4.9l-8.5,15.9
							c-0.2,0.4,0,0.8,0.4,1c7.5,3,15.1,5.9,22.7,8.7c0.4,0.1,0.7-0.1,0.8-0.5c1.8-9.4,4.8-18.5,7.4-27.7c2.6-9.4,4.8-19.1,4.6-28.9
							"/>
						<g>
							<path class="st20" d="M263.8,127.9c-1.2,5.5-2.6,11-4.3,16.4c-0.8,2.7-1.8,5.4-2.7,8.1c-1,2.7-2.2,5.2-3.6,7.7
								c-2.1,3.8-4.1,7.7-6.2,11.5c-0.8,1.5-1.6,3-2.4,4.5c-0.2,0.4-0.1,0.9,0.4,1.1c0.5,0.3,1.1,0.4,1.7,0.7
								c0.7,0.3,1.5,0.6,2.2,0.9c2.7,1,5.4,2.1,8.1,3.1c2.7,1,5.5,2.1,8.2,3.1c0.6,0.2,1.2,0.5,1.9,0.7c0.4,0.2,0.9,0.5,1.3,0.2
								c0.4-0.3,0.4-0.9,0.4-1.3c0.1-0.7,0.3-1.5,0.5-2.2c1.2-5.6,2.8-11,4.4-16.5c3.1-10.7,6.4-21.6,6.9-32.8
								c0.1-1.4,0.1-2.8,0.1-4.2c0-0.1-0.2-0.1-0.2,0c0.2,11.1-2.6,22-5.7,32.6c-1.5,5.3-3.1,10.6-4.5,15.9c-0.3,1.4-0.7,2.7-1,4.1
								c-0.1,0.6-0.3,1.3-0.4,1.9c-0.1,0.3-0.1,0.7-0.2,1c-0.1,0.3-0.1,0.7-0.2,1c-0.2,0.6-0.8,0.4-1.2,0.2c-0.3-0.1-0.7-0.3-1-0.4
								c-0.7-0.3-1.3-0.5-2-0.8c-1.3-0.5-2.6-1-3.9-1.5c-2.7-1-5.4-2-8.1-3.1c-1.3-0.5-2.6-1-3.9-1.5c-0.6-0.2-1.2-0.5-1.8-0.7
								c-0.6-0.2-2.2-0.5-1.8-1.4c0.2-0.4,0.4-0.7,0.6-1.1c0.5-0.9,1-1.8,1.4-2.7c2.1-4,4.3-8,6.4-11.9c0.9-1.7,1.8-3.4,2.6-5.2
								c1.1-2.5,1.9-5,2.8-7.6c1.7-5.2,3.2-10.5,4.5-15.8c0.3-1.3,0.6-2.6,0.9-3.9C264,127.9,263.9,127.8,263.8,127.9L263.8,127.9z"
								/>
						</g>
					</g>
					<g>
						<path class="st20" d="M265.2,137.2c-3.1,11.1-7.7,21.7-12.1,32.3c-1.3,3.1-2.5,6.1-3.8,9.2c-0.1,0.3,0.3,0.4,0.4,0.1
							c2.2-5.4,4.5-10.8,6.7-16.2c2.2-5.3,4.3-10.6,6.3-16c1.1-3.1,2.1-6.2,3-9.3C265.7,137.1,265.3,136.9,265.2,137.2L265.2,137.2z
							"/>
					</g>
					<g>
						<path class="st20" d="M254.4,180.7c1.4-2.2,2.1-4.8,3-7.2c0.9-2.6,1.9-5.2,2.8-7.8c1.9-5.2,3.7-10.4,5.6-15.7
							c1.1-3,2.1-5.9,3.2-8.9c0.1-0.3-0.3-0.4-0.4-0.1c-3.7,10.4-7.4,20.7-11.1,31.1c-0.5,1.4-1,2.9-1.5,4.3c-0.5,1.4-1.1,2.8-1.9,4
							C253.8,180.7,254.2,180.9,254.4,180.7L254.4,180.7z"/>
					</g>
					<g>
						<path class="st20" d="M259.8,182.7c3.8-9.9,8.1-19.6,11.2-29.7c0.9-2.9,1.6-5.8,2.3-8.7c0.1-0.3-0.4-0.4-0.4-0.1
							c-2.2,10.4-6.2,20.2-10.2,30c-1.1,2.8-2.2,5.6-3.3,8.4C259.2,182.9,259.7,183,259.8,182.7L259.8,182.7z"/>
					</g>
					<g>
						<path class="st20" d="M264.5,184.5c3.2-9.3,6.7-18.5,9-28.1c0.6-2.7,1.2-5.4,1.7-8.1c0.1-0.3-0.4-0.4-0.4-0.1
							c-0.9,4.8-2,9.6-3.4,14.3c-1.4,4.7-3,9.3-4.6,13.9c-0.9,2.6-1.8,5.3-2.8,7.9C264,184.6,264.4,184.7,264.5,184.5L264.5,184.5z"
							/>
					</g>
				</g>
				<path class="st24" d="M263.4,130.2c0,0-4.4,16.6,0.3,27.9c4.7,11.3,9.2,10,9.2,10l4.7-15.7"/>
			</g>
			<g>
				<g>
					<g>
						<path class="st12" d="M281.9,119.1c-4.4,0.5-8.8-0.7-13-2.1c-0.3-0.1-0.9-0.5-1.3-0.4c-0.2,0-0.4,0.4-0.6,0.7
							c-3.1,3.1-4.2,7.8-3.9,12.2c0.3,4.3,2,8.5,4.1,12.3c1.2,2.2,2.5,4.3,3.7,6.5c0.9,1.7,1.6,3.5,2.3,5.4
							c3.9,9.8,7.8,19.6,10.2,29.9c0.1,0.6,0.5,1.7,0.6,1.8c0.1,0.1,1,0,1.4,0c7.6,0.1,14.8-2.8,21.9-5.7c0.5-0.2,1.2-0.6,1.2-1.1
							c0-0.3-0.2-0.7-0.3-1c-4.7-7.6-6.7-16.5-10.5-24.6c-2.7-5.7-6.2-10.9-9.2-16.3C285.3,131.1,282.6,125.3,281.9,119.1"/>
						<g>
							<path class="st20" d="M281.9,119c-3.2,0.3-6.5-0.2-9.6-1.1c-1.4-0.4-2.8-0.8-4.2-1.3c-0.4-0.1-0.7-0.1-0.9,0.2
								c-0.4,0.5-0.8,1-1.2,1.5c-3.3,4.2-3.6,10.1-2.4,15.1c0.7,2.9,1.9,5.6,3.4,8.2c1.5,2.7,3.2,5.4,4.5,8.2c1.3,3,2.5,6,3.6,9
								c1.2,3,2.3,6,3.4,9c1.1,3,2.1,6,3,9.1c0.5,1.6,0.9,3.1,1.3,4.7c0.3,1.2,0.5,2.4,1,3.5c0.1,0.3,0.2,0.3,0.6,0.3
								c0.6,0,1.1,0,1.7-0.1c1.5,0,3-0.1,4.5-0.4c3.1-0.5,6-1.3,8.9-2.3c1.5-0.5,3-1.1,4.4-1.7c0.7-0.3,1.3-0.5,2-0.8
								c0.6-0.3,1.3-0.5,1.9-0.8c0.4-0.2,0.7-0.5,0.7-1c0-0.6-0.5-1.1-0.8-1.6c-0.8-1.3-1.4-2.6-2.1-3.9c-2.6-5.4-4.3-11.1-6.5-16.5
								c-2.3-5.7-5.5-10.9-8.6-16.1c-3.1-5.3-6.1-10.7-7.7-16.7C282.5,122.1,282.2,120.6,281.9,119C282,119,281.8,119,281.9,119
								c0.6,5.8,2.8,11.2,5.6,16.3c2.9,5.3,6.3,10.3,9,15.7c2.6,5.2,4.4,10.7,6.5,16.1c1,2.6,2.1,5.2,3.4,7.7c0.3,0.6,0.7,1.2,1,1.8
								c0.3,0.6,1.2,1.5,0.8,2.2c-0.3,0.6-1.1,0.8-1.7,1c-0.7,0.3-1.5,0.6-2.3,0.9c-5.6,2.3-11.5,4.3-17.6,4.5c-0.6,0-1.3,0-1.9,0
								c-0.2,0-0.5,0.1-0.7,0c-0.1-0.1-0.2-0.3-0.2-0.5c-0.5-1.2-0.7-2.5-1-3.8c-0.8-3-1.7-6-2.7-8.9c-2-5.9-4.2-11.7-6.5-17.5
								c-1.1-2.8-2.2-5.6-3.7-8.3c-1.5-2.6-3-5.1-4.3-7.9c-2.3-5.1-3.4-11-1.5-16.4c0.4-1.2,1-2.4,1.8-3.4c0.4-0.5,0.8-1,1.2-1.5
								c0.2-0.3,0.3-0.6,0.7-0.5c0.3,0.1,0.5,0.2,0.8,0.3c1.4,0.6,2.9,0.9,4.4,1.3c1.4,0.4,2.9,0.7,4.3,0.8c1.5,0.2,3,0.2,4.5,0
								C282,119.2,282,119,281.9,119L281.9,119z"/>
						</g>
					</g>
					<g>
						<path class="st20" d="M268.2,116.8c-2.2,3.9-2,8.6-0.9,12.8c0.6,2.3,1.4,4.6,2.2,6.8c0.8,2.2,1.7,4.5,2.6,6.7
							c3.6,9,7.6,17.7,11.3,26.7c2.1,5,4,10.1,5.7,15.3c0.1,0.3,0.5,0.2,0.4-0.1c-2.9-9-6.7-17.8-10.5-26.5
							c-1.9-4.4-3.8-8.7-5.6-13.1c-1.8-4.4-3.6-8.8-5.1-13.4c-1.5-4.8-2.4-10.3,0.1-14.9C268.7,116.8,268.3,116.5,268.2,116.8
							L268.2,116.8z"/>
					</g>
					<g>
						<path class="st20" d="M271.2,117.8c0.6,9.1,2.9,17.9,6,26.4c3.2,8.6,7.2,16.8,11.4,24.9c2.5,4.8,4.9,9.6,6.3,14.8
							c0.1,0.3,0.5,0.2,0.4-0.1c-1.3-4.6-3.3-8.9-5.4-13.1c-2.1-4.1-4.2-8.1-6.2-12.2c-3.9-8.2-7.4-16.6-9.7-25.4
							c-1.3-5-2.2-10-2.5-15.1C271.6,117.5,271.1,117.5,271.2,117.8L271.2,117.8z"/>
					</g>
					<g>
						<path class="st20" d="M275.7,119c0.5,4.4,1.6,8.6,2.9,12.8c1.3,4.2,2.8,8.4,4.3,12.5c3.1,8.3,6.5,16.6,10.2,24.6
							c2.1,4.6,4.3,9.1,6.5,13.5c0.1,0.3,0.5,0,0.4-0.2c-4-7.9-7.7-15.9-11.2-24c-3.4-8.2-6.6-16.5-9.3-24.9
							c-1.5-4.7-2.9-9.4-3.4-14.3C276.2,118.7,275.7,118.7,275.7,119L275.7,119z"/>
					</g>
					<g>
						<path class="st20" d="M278.9,119.3c0.8,4,2.3,7.7,3.9,11.5c1.8,4.1,3.5,8.2,5.2,12.3c3.5,8.2,7,16.4,10.5,24.5
							c1.9,4.4,3.8,8.7,6.2,12.8c0.1,0.3,0.5,0,0.4-0.2c-2.1-3.7-3.9-7.5-5.6-11.4c-1.7-4-3.4-8-5.1-12c-3.5-8.2-7-16.4-10.5-24.6
							c-1.8-4.3-3.7-8.5-4.5-13.1C279.3,118.9,278.8,119.1,278.9,119.3L278.9,119.3z"/>
					</g>
				</g>
				<path class="st24" d="M281.9,119c0,0-6.1,8.6-2.5,16.9s3.2,18.3,11.1,20.2s7.1-3.2,7.1-3.2s-5.4-10.2-8.6-15.1
					C285.8,132.8,281.8,121.8,281.9,119z"/>
			</g>
		</g>
		<g>
			<g>
				<path class="st0" d="M304,73.3c0.2,4.4,0.7,8.8,1.4,13.1c0.1,0.7,0.2,1.4,0.6,2c0.6,0.8,1.6,1.2,2.6,1s1.8-1,2-2
					c0.3-1.4-0.4-2.7-1-4c-1.8-3.8-2.4-8.2-1.9-12.4"/>
			</g>
			<g>
				<path class="st2" d="M324,56.1c-5.6,5.7-12,9.2-18.9,10.9l-0.1,8.5c7-1.2,14.3-0.2,21.1,2.9"/>
			</g>
			<g class="st25">
				<path class="st0" d="M305,72.8l0,2.7c7-1.2,14.3-0.2,21.1,2.9l-0.8-8.6C318.2,69.6,311.4,70.6,305,72.8z"/>
			</g>
			
				<ellipse transform="matrix(0.9955 -9.430125e-02 9.430125e-02 0.9955 -4.8908 30.9812)" class="st0" cx="325.4" cy="67.2" rx="2.8" ry="11.4"/>
			
				<ellipse transform="matrix(0.9955 -9.430125e-02 9.430125e-02 0.9955 -4.9284 30.9016)" class="st9" cx="324.5" cy="67.6" rx="1.9" ry="7.7"/>
			<g>
				<path class="st0" d="M305.5,66.8c-1.2,0.2-2.3,0.4-3.5,0.6c-0.6,0.1-1.3,0.3-1.7,0.8c-0.5,0.6-0.6,1.4-0.6,2.2
					c0,1.6,0.1,3.1,0.4,4.7c0.1,0.4,0.1,0.7,0.4,1c0.3,0.5,1,0.6,1.5,0.6c1.4,0,3.4-0.5,4.5-1.4"/>
			</g>
			<path class="st2" d="M322.3,64.4c0,0,3.3-1.3,4.6,0.4c1.4,1.6,1.2,6.7-4.1,6C322.9,70.8,322.3,66.6,322.3,64.4z"/>
			<path class="st26" d="M327,64.8c-0.1-0.1-0.1-0.1-0.2-0.2c0,1.9-1.1,4-4.2,3.8c0.1,1.3,0.3,2.4,0.3,2.4
				C328.2,71.5,328.4,66.4,327,64.8z"/>
		</g>
		<g>
			<path class="st4" d="M307.6,77.6c0.1-0.2,0.2-0.3,0.4-0.4c0.2-0.1,0.4-0.1,0.5,0.1c0,0.1,0.1,0.2,0.1,0.2c0,0.4-0.1,0.7-0.2,1
				c0.2-0.1,0.4-0.2,0.6-0.1c0.2,0.1,0.2,0.4,0.1,0.5c-0.1,0.2-0.2,0.4-0.1,0.6c0.2-0.2,0.5,0,0.5,0.2c0.1,0.2,0,0.4-0.1,0.7
				c0.2,0,0.4,0,0.5,0.1c0.2,0.1,0.1,0.4,0.1,0.6c-0.2,0.6-0.5,1.1-1,1.5c-0.1,0.1-0.3,0.2-0.5,0.2c-0.2,0-0.4-0.1-0.4-0.3
				c0-0.1,0-0.2,0.1-0.2c0.1-0.2,0.3-0.5,0.4-0.7c-0.1,0.2-0.4,0.3-0.6,0.2c-0.2-0.1-0.3-0.4-0.3-0.6s0.1-0.5,0.3-0.6
				c-0.1-0.1-0.3,0.1-0.5,0.1c-0.2,0-0.5-0.2-0.4-0.5c0-0.2,0.2-0.5,0.4-0.6c-0.2,0.2-0.6,0.1-0.7-0.1c-0.2-0.2-0.2-0.5-0.1-0.8
				c0.1-0.3,0.3-0.5,0.6-0.6"/>
		</g>
		<g>
			<g>
				<g>
					<path class="st5" d="M282,79.4c-0.9,0.5-1.9,0.3-2.9-0.2c-1.4-0.7-2.2-1.4-2.7-2.9c-0.3-0.7-0.6-2-0.6-2.7
						c0-1.1-0.6-1.9-0.7-3.1c0-0.1,0-0.3,0.2-0.4c0.1,0,0.1,0,0.2,0c0.4,0.2,0.7,0.5,0.9,0.8"/>
				</g>
				<g>
					<path class="st9" d="M292.8,69.7c-0.1,0.8-0.5,1.9-1.5,2.1c-1.4,0.3-1.9-1.4-1.8-2.4c0.1-1,0.7-2.1,1.8-2.1
						C292.6,67.3,292.9,68.7,292.8,69.7c0,0.1,0.1,0.1,0.1,0c0.1-1-0.3-2.5-1.5-2.6c-1.2-0.1-1.9,1.2-2,2.2c-0.1,1,0.3,2.5,1.5,2.6
						c1.2,0.1,1.9-1.2,2-2.2C293,69.7,292.9,69.6,292.8,69.7z"/>
				</g>
				<g>
					<path class="st4" d="M290,61.2c2.1,1.8,3.4,4.7,2.6,7.4c-0.1,0.4-0.3,0.8-0.3,1.2c-0.2,1.4,0.8,2.6,2,3.4
						c0.1,0,0.1,0.1,0.2,0.2c0,0.1,0,0.2-0.1,0.3c-0.3,0.4-0.8,0.5-1.3,0.7c-0.6,0.3-1,0.8-1.1,1.4c0,0.2-0.1,0.5-0.2,0.6
						c-0.2,0.1-0.4,0.1-0.6,0.1c-0.8,0-1.6-0.2-2.4-0.3c0.4,0.7,1,1.4,1.7,1.9c0.2,0.1,0.3,0.3,0.3,0.5c0,0.1-0.1,0.1-0.2,0.2
						c-0.8,0.4-1.5,1.2-1.8,2.1c-0.1,0.4-0.2,0.8-0.5,1c-0.4,0.3-0.9,0.2-1.3,0c-1-0.4-2-0.8-2.9-1.3c-0.6-0.3-1.2-0.7-1.7-1
						c-0.7-0.5-1.5-0.9-2.2-1.4c-0.4-0.2-0.8-0.5-1.1-0.7c-0.6-0.5-1.7-1.5-2.1-2.2c-1.8-3.2-1.5-6.9-0.3-10.3"/>
				</g>
				<g>
					<path class="st9" d="M289.8,69c0,0.3-0.1,0.7-0.1,1c0,0.2,0.2,0.2,0.3,0.1c0.3-0.3,0.4-0.6,0.3-1.1c0-0.2-0.4-0.1-0.3,0.1
						c-0.1,0.2-0.1,0.5-0.2,0.7c0.1,0,0.2,0.1,0.3,0.1c0-0.3,0.1-0.7,0.1-1C290.2,68.8,289.8,68.8,289.8,69L289.8,69z"/>
				</g>
				<g>
					<path class="st5" d="M280.4,68.5c0.8,0.6,1,1.8,1.5,2.7c0.1,0.2,0.3,0.4,0.5,0.5c0.3,0.1,0.7,0,1-0.1c1.4-0.5,2.8-1,4.1-1.8
						c1.3-0.8,2.4-1.8,3.2-3.1"/>
				</g>
				<g>
					<path class="st5" d="M281.3,68.9c-0.3-0.2-0.6-0.4-1-0.3s-0.7,0.2-0.9,0.5c-0.1,0.2-0.1,0.3-0.2,0.5c-0.1,0.9,0.4,1.9,1.2,2.3
						c0.1,0,0.2,0.1,0.3,0.1c0.1,0,0.2,0,0.3-0.1c0.3-0.2,0.6-0.4,0.8-0.7"/>
				</g>
				<circle class="st5" cx="286.1" cy="73.4" r="1.5"/>
				<g>
					<path class="st9" d="M291.7,67.3c-1-0.1-2-0.2-2.9,0.4c-0.2,0.1,0,0.3,0.1,0.2c0.8-0.5,1.8-0.4,2.7-0.3
						C291.8,67.6,291.8,67.3,291.7,67.3L291.7,67.3z"/>
				</g>
				<path class="st9" d="M292.9,69.4c-0.3-0.1-0.6-0.1-0.9-0.1c0-1-0.4-2.3-1.5-2.4c-1.2-0.1-1.9,1.2-2,2.2c0,0.1,0,0.1,0,0.2
					c-2.1,0.1-4.3,0.2-6.4,0.3c-0.1,0-0.1,0.1,0,0.1c2.1-0.1,4.3-0.2,6.4-0.3c0,1,0.4,2.2,1.5,2.3c1.2,0.1,1.9-1.2,2-2.2
					c0,0,0,0,0,0c0,0,0,0,0,0c0,0,0-0.1,0-0.1C292.3,69.4,292.6,69.4,292.9,69.4C293,69.5,293,69.4,292.9,69.4z M290.4,71.6
					c-1.4,0.3-1.9-1.4-1.8-2.4c0.1-1,0.7-2.1,1.8-2.1c1.2,0,1.5,1.3,1.5,2.3c0,0,0,0,0,0c0,0.1,0,0.1,0,0.2
					C291.8,70.3,291.4,71.4,290.4,71.6z"/>
			</g>
			<g>
				<g>
					<path class="st0" d="M272.8,65.2c0.3,0.6,0.5,1.3,0,1.8c-0.4,0.4-1,0.4-1.6,0.5c-0.8,0.1-1.7,0.5-2.1,1.2
						c-0.2,0.4-0.2,0.8-0.2,1.2c0,0.2,0.1,0.5,0.2,0.7c0.1,0.3,0.3,0.6,0.2,1c-0.2,0.5-1,0.7-1.4,0.9c-0.4,0.2-0.7,0.5-0.9,0.8
						c-0.6,0.7-0.9,1.7-0.6,2.6c0,0.1,0.2,0,0.1,0c-0.3-1,0.1-2,0.8-2.7c0.4-0.4,0.9-0.6,1.4-0.8c0.4-0.2,0.8-0.4,0.9-0.8
						c0.1-0.5-0.3-0.9-0.4-1.3c-0.2-0.6-0.2-1.2,0.2-1.7c0.3-0.4,0.8-0.7,1.4-0.8c0.5-0.1,1-0.1,1.5-0.3c1.2-0.3,1.1-1.5,0.6-2.3
						C272.8,65.1,272.7,65.2,272.8,65.2L272.8,65.2z"/>
				</g>
				<g>
					<path class="st0" d="M281,56.9c0.6-1.1,1.8-1.8,3-1.7c0.6,0.1,1.2,0.3,1.7,0.7c0.4,0.3,0.8,0.6,1.3,0.7c0.9,0,1.4-1,1.7-1.8
						c0.3-0.7,0.6-1.3,1.3-1.6c0.6-0.2,1.2-0.2,1.8-0.2c1.1,0,2.3,0.1,3.2-0.7c0.1-0.1,0-0.2-0.1-0.1c-1,0.9-2.3,0.7-3.4,0.7
						c-0.5,0-1.1,0-1.6,0.2c-0.5,0.2-0.8,0.6-1,1c-0.5,0.9-1,2.7-2.3,2.2c-0.6-0.2-1-0.7-1.5-1c-0.4-0.2-0.9-0.3-1.4-0.3
						c-1.1,0-2.1,0.7-2.7,1.8C280.8,56.9,280.9,57,281,56.9L281,56.9z"/>
				</g>
				<g>
					<g>
						<path class="st0" d="M276.3,75.7c1.4-0.3,2.6-1.2,3.3-2.4c0.1-0.1,0.1-0.3,0.1-0.4c0-0.2-0.2-0.4-0.3-0.5
							c-0.6-0.6-1-1.5-1-2.4c0-0.3,0-0.6,0.2-0.8c0.2-0.4,0.7-0.6,1.2-0.7c0.8-0.1,1.7,0.4,2.1,1.1c0.1,0.1,0.1,0.3,0.3,0.4
							c0.1,0.1,0.3,0.1,0.5,0.1c2.9,0.2,5.9-0.9,8.1-2.9c0.7-0.6,1.3-1.4,1.5-2.3c0.2-0.9-0.2-1.9-0.7-2.7c-0.9-1.6-2.3-2.9-3.9-3.8
							c-1.6-0.9-3.4-1.5-5.2-1.8c-1.1-0.2-2.3-0.3-3.5,0c-0.8,0.2-1.6,0.6-2.3,1.2c-2.6,2-3.8,5.4-3.7,8.6
							C273,69.5,274.6,72.9,276.3,75.7"/>
					</g>
					<g>
						<path class="st9" d="M290.5,66.9c-1.3,1-2.8,1.6-4.4,2c-0.8,0.2-1.6,0.3-2.4,0.2c-1-0.2-1.8-0.7-2.8-0.8
							c-0.9-0.1-1.8,0.1-2.5,0.6c-0.7,0.6-1.1,1.5-0.9,2.4c0.1,0.4,0.3,0.8,0.5,1.3c0.1,0.3,0.2,0.6,0.1,0.8
							c-0.1,0.1-0.2,0.2-0.3,0.2c-0.6,0.4-1.5,0.2-2.1-0.2c-0.6-0.4-0.9-1.1-1.3-1.6c-0.1-0.2-0.4-0.6-0.5-0.8
							c0.5,1.5,1.5,3.5,2.3,4.8l0,0c1.4-0.3,2.6-1.2,3.3-2.4c0.1-0.1,0.1-0.3,0.1-0.4c0-0.2-0.2-0.4-0.3-0.5c-0.6-0.6-1-1.5-1-2.4
							c0-0.3,0-0.6,0.2-0.8c0.2-0.4,0.7-0.6,1.2-0.7c0.8-0.1,1.7,0.4,2.1,1.1c0.1,0.1,0.1,0.3,0.3,0.4c0.1,0.1,0.3,0.1,0.5,0.1
							c2.9,0.2,5.9-0.9,8.1-2.9c0.5-0.5,1-1.1,1.3-1.8C291.5,66,291,66.5,290.5,66.9z"/>
					</g>
					<g class="st27">
						<g>
							<path class="st11" d="M275.3,66.8c0.2-1.7,1-3.2,2.3-4.3c0,0,0-0.1-0.1-0.1C276.2,63.5,275.4,65.1,275.3,66.8
								C275.2,66.8,275.3,66.8,275.3,66.8L275.3,66.8z"/>
						</g>
						<g>
							<path class="st11" d="M277.9,65.5c0.2-0.7,0.8-1.2,1.4-1.6c0,0,0-0.1,0-0.1C278.7,64.3,278.1,64.7,277.9,65.5
								C277.8,65.5,277.9,65.6,277.9,65.5L277.9,65.5z"/>
						</g>
						<g>
							<path class="st11" d="M280.5,64.8c0.3-0.4,0.7-0.6,1.1-0.7c0.1,0,0-0.1,0-0.1C281.2,64.1,280.8,64.4,280.5,64.8
								C280.4,64.8,280.5,64.8,280.5,64.8L280.5,64.8z"/>
						</g>
						<g>
							<path class="st11" d="M282.2,65.8c0.4-0.3,0.9-0.6,1.5-0.7c0.1,0,0-0.1,0-0.1C283.1,65.1,282.6,65.4,282.2,65.8
								C282.1,65.8,282.2,65.8,282.2,65.8L282.2,65.8z"/>
						</g>
						<g>
							<path class="st11" d="M285.2,64.3c0.6-0.2,1.2-0.5,1.8-0.8c0.1,0,0-0.1,0-0.1C286.4,63.8,285.8,64,285.2,64.3
								C285.1,64.3,285.1,64.4,285.2,64.3L285.2,64.3z"/>
						</g>
						<g>
							<path class="st11" d="M285.9,66.2c0.5-0.4,1.1-0.7,1.6-1.1c0,0,0-0.1,0-0.1C287,65.4,286.4,65.8,285.9,66.2
								C285.9,66.2,285.9,66.2,285.9,66.2L285.9,66.2z"/>
						</g>
						<g>
							<path class="st11" d="M288.9,65.3c0.3-0.4,0.7-0.8,1.2-1.1c0,0,0-0.1,0-0.1C289.6,64.4,289.2,64.8,288.9,65.3
								C288.8,65.3,288.9,65.3,288.9,65.3L288.9,65.3z"/>
						</g>
						<g>
							<path class="st11" d="M286.2,59.9c-0.4,0.3-0.8,0.5-1.2,0.8c0,0,0,0.1,0,0.1C285.4,60.5,285.9,60.2,286.2,59.9
								C286.3,59.9,286.3,59.9,286.2,59.9L286.2,59.9z"/>
						</g>
						<g>
							<path class="st11" d="M283.2,59.1c-0.4,0.2-0.8,0.4-1.2,0.7c0,0,0,0.1,0,0.1C282.4,59.6,282.8,59.3,283.2,59.1
								C283.3,59.1,283.3,59.1,283.2,59.1L283.2,59.1z"/>
						</g>
						<g>
							<path class="st11" d="M282.7,61.5c-0.3,0.1-0.6,0.2-0.8,0.4c0,0,0,0.1,0,0.1C282.1,61.8,282.4,61.7,282.7,61.5
								C282.7,61.6,282.7,61.5,282.7,61.5L282.7,61.5z"/>
						</g>
						<g>
							<path class="st11" d="M277.7,67.4c-0.3,0.4-0.5,0.8-0.6,1.3c0,0.1,0.1,0.1,0.1,0C277.3,68.3,277.5,67.9,277.7,67.4
								C277.8,67.5,277.8,67.4,277.7,67.4L277.7,67.4z"/>
						</g>
						<g>
							<path class="st11" d="M275.3,69.2c-0.2,0.4-0.3,0.7-0.3,1.1c0,0.1,0.1,0.1,0.1,0C275.1,69.9,275.2,69.6,275.3,69.2
								C275.4,69.2,275.4,69.2,275.3,69.2L275.3,69.2z"/>
						</g>
						<g>
							<path class="st11" d="M274.2,67.8c-0.1,0.2-0.1,0.5-0.1,0.7c0,0.1,0.1,0,0.1,0C274.2,68.2,274.2,68,274.2,67.8
								C274.3,67.7,274.2,67.7,274.2,67.8L274.2,67.8z"/>
						</g>
						<g>
							<path class="st11" d="M278.4,60.2c-0.3,0.2-0.5,0.4-0.8,0.6c0,0,0,0.1,0.1,0.1C277.9,60.6,278.1,60.4,278.4,60.2
								C278.5,60.2,278.4,60.2,278.4,60.2L278.4,60.2z"/>
						</g>
						<g>
							<path class="st11" d="M279.2,66.7c-0.2-0.2,0.8-0.5,0.9-0.6c0.1,0,0-0.1,0-0.1c-0.4,0.1-0.7,0.3-1,0.5c0,0,0,0,0,0.1
								C279,66.7,279.1,66.7,279.2,66.7C279.1,66.8,279.2,66.8,279.2,66.7L279.2,66.7z"/>
						</g>
						<g>
							<path class="st11" d="M282.5,67.3c0.2-0.2,0.4-0.3,0.6-0.3c0.1,0,0.1-0.1,0-0.1C282.9,66.9,282.6,67,282.5,67.3
								C282.4,67.3,282.5,67.3,282.5,67.3L282.5,67.3z"/>
						</g>
					</g>
				</g>
				<g>
					<g>
						<path class="st0" d="M279.5,60.5c1.1-0.2,2.1-1.1,2.6-2.1c0.6-1,0.8-2.2,0.9-3.3c0.1-1,0.2-2.1-0.4-3
							c-0.5-0.9-1.6-1.3-2.6-1.4c-1-0.1-2.1,0.1-3.1,0.4c0.2-2.2-0.8-4.4-2.4-5.9c-1.1-1-2.4-1.7-3.9-1.8c-1.4-0.1-3,0.4-3.9,1.5
							c-0.9,1.1-1.2,2.8-0.4,4.1c-1.6-0.9-3.8-0.4-5.1,0.9c-1.3,1.3-1.8,3.3-1.5,5.1c0.2,1.6,1.1,3.1,2.6,3.8
							c0.7,0.3,1.5,0.4,2.2,0.5c-1.2,2.5-0.2,5.8,2,7.4c0.8,0.5,1.8,0.9,2.7,0.7c1-0.2,1.8-1,2.5-1.8c0.5,1.1,2.1,1.4,3.2,0.8
							s1.7-1.8,2.3-2.8"/>
					</g>
					<g>
						<path class="st9" d="M267.9,52.9c0.6,0.7,2,1.1,3,1.1c1.5,0,3-0.8,4-1.8c-0.3,0.9-1,1.6-1.8,2.2c-0.6,0.4-1.3,0.8-2.1,0.9
							c-0.8,0.1-1.6-0.1-2.2-0.6C268.4,54.2,268.1,53.5,267.9,52.9"/>
					</g>
					<g>
						<path class="st9" d="M275.3,64c-0.6,0-1.2-0.3-1.8-0.3c-1.2,0-2,0.9-3.1,1.3c-1.1,0.4-2.3,0.2-3.3-0.4
							c-0.9-0.6-1.5-1.6-1.6-2.7c-0.1-0.9,0.1-1.8-0.2-2.6c0-0.1-0.1-0.2-0.2-0.3c-0.1-0.1-0.3-0.1-0.4-0.1c-0.9,0-1.8-0.4-2.5-0.8
							c-0.7-0.4-1.2-0.9-1.8-1.4c0.4,0.9,1.1,1.7,2.1,2.2c0.7,0.3,1.5,0.4,2.2,0.5c-1.2,2.5-0.2,5.8,2,7.4c0.8,0.5,1.8,0.9,2.7,0.7
							c1-0.2,1.8-1,2.5-1.8c0.5,1.1,2.1,1.4,3.2,0.8c1.1-0.6,1.7-1.8,2.3-2.8l0.4-0.5c-0.1,0.1-0.1,0.1-0.2,0.2
							C276.9,63.5,276.2,64,275.3,64z"/>
					</g>
					<g>
						<path class="st9" d="M282.7,52.1c-0.5-0.9-1.6-1.3-2.6-1.4c-1-0.1-2.1,0.1-3.1,0.4c0.2-2.2-0.8-4.4-2.4-5.9
							c-1.1-1-2.4-1.7-3.9-1.8c-1.4-0.1-3,0.4-3.9,1.5c-0.9,1-1.1,2.6-0.5,3.8c-0.1-1.2,0.2-2.1,1-2.9c1-1.1,2.5-1.6,3.9-1.4
							c1.4,0.2,2.7,1,3.6,2.2c0.9,1.1,1.5,2.6,1.7,4.1c0,0.2,0.1,0.4,0.2,0.5c0.1,0.1,0.2,0.1,0.4,0.1c0.7,0.1,1.3,0.1,2,0.3
							c1.3,0.3,2.4,1.3,2.8,2.6c0.5,1.3,0.2,3.2-0.5,4.3c-0.3,0.5-0.7,1.1-1,1.7c0.7-0.4,1.3-1,1.7-1.8c0.6-1,0.8-2.2,0.9-3.3
							C283.2,54.1,283.2,53,282.7,52.1z"/>
					</g>
					<g class="st28">
						<g>
							<path class="st11" d="M266.9,64c0.4,0.4,0.8,0.6,1.3,0.7c0,0,0.1-0.1,0-0.1C267.8,64.5,267.3,64.3,266.9,64
								C266.9,63.9,266.9,64,266.9,64L266.9,64z"/>
						</g>
						<g>
							<path class="st11" d="M268.4,62.8c0.2,0.5,1,0.6,1.5,0.6c0,0,0-0.1,0-0.1C269.5,63.3,268.6,63.2,268.4,62.8
								C268.4,62.7,268.4,62.7,268.4,62.8L268.4,62.8z"/>
						</g>
						<g>
							<path class="st11" d="M269.7,64.4c0.5,0.2,1,0.3,1.5,0.3c0,0,0-0.1,0-0.1C270.7,64.7,270.2,64.6,269.7,64.4
								C269.7,64.4,269.7,64.4,269.7,64.4L269.7,64.4z"/>
						</g>
						<g>
							<path class="st11" d="M271.9,62.8c0.3,0.4,0.7,0.7,1.2,0.8c0,0,0.1,0,0-0.1C272.6,63.4,272.2,63.1,271.9,62.8
								C271.9,62.7,271.9,62.8,271.9,62.8L271.9,62.8z"/>
						</g>
						<g>
							<path class="st11" d="M271.1,60.7c0.3,0.4,0.6,0.6,0.9,0.9c0,0,0.1,0,0-0.1C271.7,61.3,271.4,61,271.1,60.7
								C271.2,60.6,271.1,60.6,271.1,60.7L271.1,60.7z"/>
						</g>
						<g>
							<path class="st11" d="M267.2,59.7c-0.1,0.4,0.5,0.8,0.8,1c0,0,0.1,0,0-0.1C267.7,60.5,267.2,60.1,267.2,59.7
								C267.2,59.7,267.2,59.7,267.2,59.7L267.2,59.7z"/>
						</g>
						<g>
							<path class="st11" d="M265.9,60.8c0.1,0.4,0.3,0.7,0.5,0.9c0,0,0.1,0,0,0C266.2,61.5,266.1,61.2,265.9,60.8
								C266,60.8,265.9,60.8,265.9,60.8L265.9,60.8z"/>
						</g>
						<g>
							<path class="st11" d="M261.7,53.9c-0.1,0.1-0.1,0.2-0.1,0.4c0.1,0.3,0.2,0.6,0.3,0.9c0,0,0.1,0,0.1,0
								C261.9,54.9,261.5,54.2,261.7,53.9C261.8,53.9,261.8,53.9,261.7,53.9L261.7,53.9z"/>
						</g>
						<g>
							<path class="st11" d="M263,54.2c0.1,0.4,0.2,0.7,0.3,1.1c0,0,0.1,0,0.1,0C263.2,54.9,263.1,54.5,263,54.2
								C263,54.1,263,54.1,263,54.2L263,54.2z"/>
						</g>
						<g>
							<path class="st11" d="M264.9,54c0,0.4,0.2,0.8,0.4,1.1c0,0,0.1,0,0.1,0C265.1,54.8,265,54.4,264.9,54
								C264.9,54,264.9,54,264.9,54L264.9,54z"/>
						</g>
						<g>
							<path class="st11" d="M263,56.7c0.2,0.3,0.3,0.5,0.6,0.7c0,0,0.1,0,0,0C263.4,57.2,263.2,56.9,263,56.7
								C263.1,56.6,263,56.7,263,56.7L263,56.7z"/>
						</g>
						<g>
							<path class="st11" d="M265.4,57c0.1,0.2,0.3,0.4,0.4,0.6c0,0,0.1,0,0,0C265.8,57.3,265.6,57.1,265.4,57
								C265.5,56.9,265.4,56.9,265.4,57L265.4,57z"/>
						</g>
						<g>
							<path class="st11" d="M263.3,50.6c-0.1,0.3-0.1,0.5,0,0.8c0,0,0.1,0,0.1,0C263.3,51.2,263.2,50.9,263.3,50.6
								C263.4,50.6,263.3,50.6,263.3,50.6L263.3,50.6z"/>
						</g>
						<g>
							<path class="st11" d="M270,47.3c0.3,0.3,0.5,0.5,0.8,0.7c0,0,0.1,0,0-0.1C270.6,47.7,270.3,47.5,270,47.3
								C270,47.2,270,47.2,270,47.3L270,47.3z"/>
						</g>
						<g>
							<path class="st11" d="M271.5,45.3c0.1,0.2,0.3,0.4,0.6,0.5c0,0,0.1,0,0-0.1C271.8,45.6,271.7,45.5,271.5,45.3
								C271.5,45.2,271.4,45.2,271.5,45.3L271.5,45.3z"/>
						</g>
						<g>
							<path class="st11" d="M273.8,45.6c0.2,0.3,0.4,0.5,0.5,0.8c0,0,0.1,0,0.1,0C274.3,46,274.1,45.8,273.8,45.6
								C273.9,45.5,273.8,45.5,273.8,45.6L273.8,45.6z"/>
						</g>
						<g>
							<path class="st11" d="M272.2,47.8c0.2,0.3,0.5,0.6,0.8,0.9c0,0,0.1,0,0,0C272.7,48.3,272.5,48,272.2,47.8
								C272.2,47.7,272.2,47.7,272.2,47.8L272.2,47.8z"/>
						</g>
						<g>
							<path class="st11" d="M274.5,48.3c0.1,0.3,0.2,0.5,0.3,0.8c0,0,0.1,0,0.1,0C274.7,48.8,274.6,48.5,274.5,48.3
								C274.5,48.2,274.5,48.2,274.5,48.3L274.5,48.3z"/>
						</g>
						<g>
							<path class="st11" d="M277,53.1c0.3,0.3,0.6,0.5,0.9,0.8c0,0,0.1,0,0,0C277.7,53.6,277.4,53.3,277,53.1
								C277.1,53,277,53.1,277,53.1L277,53.1z"/>
						</g>
						<g>
							<path class="st11" d="M279,52.1c0.2,0.4,0.5,0.7,0.8,1.1c0,0,0.1,0,0,0C279.6,52.8,279.3,52.5,279,52.1
								C279.1,52.1,279,52.1,279,52.1L279,52.1z"/>
						</g>
						<g>
							<path class="st11" d="M281.3,52.3c0.1,0.3,0.2,0.7,0.3,1c0,0,0.1,0,0.1,0C281.6,53,281.5,52.7,281.3,52.3
								C281.4,52.3,281.3,52.3,281.3,52.3L281.3,52.3z"/>
						</g>
						<g>
							<path class="st11" d="M278.9,54.3c-0.1,0.2-0.1,0.3,0,0.5c0.1,0.3,0.2,0.6,0.4,0.9c0,0,0.1,0,0.1,0c-0.1-0.2-0.2-0.4-0.3-0.5
								C279,55,278.8,54.6,278.9,54.3C279,54.3,279,54.3,278.9,54.3L278.9,54.3z"/>
						</g>
						<g>
							<path class="st11" d="M281.2,55.1c0,0.4,0,0.8-0.1,1.2c0,0,0.1,0,0.1,0C281.2,55.8,281.2,55.5,281.2,55.1
								C281.2,55,281.2,55,281.2,55.1L281.2,55.1z"/>
						</g>
						<g>
							<path class="st11" d="M279.1,57.1c0.1,0.4,0.3,0.8,0.4,1.3c0,0,0.1,0,0.1,0C279.4,58,279.3,57.5,279.1,57.1
								C279.1,57.1,279,57.1,279.1,57.1L279.1,57.1z"/>
						</g>
						<g>
							<path class="st11" d="M273.7,61.8c0.2,0.2,0.4,0.3,0.7,0.3c0,0,0.1-0.1,0-0.1C274.2,62,274,61.9,273.7,61.8
								C273.7,61.7,273.7,61.7,273.7,61.8L273.7,61.8z"/>
						</g>
						<g>
							<path class="st11" d="M268.4,58.9c0.2,0.3,0.4,0.5,0.7,0.6c0,0,0.1,0,0-0.1C268.9,59.3,268.7,59.1,268.4,58.9
								C268.4,58.8,268.4,58.9,268.4,58.9L268.4,58.9z"/>
						</g>
					</g>
				</g>
			</g>
		</g>
	</g>
	<g>
		<path class="st5" d="M232.1,127.9c-0.6-0.4-1.1-1-1.1-1.7c0-0.2,0-0.4,0.2-0.5c0.1-0.1,0.4-0.1,0.5,0.1c-0.3-0.5-0.4-1.1-0.1-1.7
			c0.4-0.6,0.8,0.3,1.1,0.6c-0.3-0.5-0.3-1.2,0-1.7c0-0.1,0.1-0.1,0.2-0.2c0.3-0.1,0.6,0.1,0.8,0.3c0.3,0.3,0.6,0.6,0.9,0.9
			c0.2,0.2,0.4,0.4,0.4,0.6c0.1,0.2,0.1,0.5-0.1,0.6s-0.5,0.2-0.7,0c0.2,0.3,0.2,0.6,0.1,0.9s-0.6,0.5-0.9,0.3
			c0.2,0.5,0.4,0.8-0.1,1.1S232.6,128.1,232.1,127.9"/>
	</g>
</g>
</svg>
