<svg xmlns="http://www.w3.org/2000/svg" viewBox="0 0 512 512"><title>aid</title><g id="Layer_2" data-name="Layer 2"><g id="Layer_1-2" data-name="Layer 1"><path d="M495.89,361.05l-69.63-69.63,71.9-71.9a47.19,47.19,0,0,0-15.71-77.07A47.14,47.14,0,0,0,417.7,77.73,47.18,47.18,0,0,0,340.63,62l-15.1,15.11L262.22,13.8a47.2,47.2,0,0,0-76.51,14.38L171.34,13.8A47.18,47.18,0,0,0,94.27,29.52,47.15,47.15,0,0,0,29.52,94.26,47.16,47.16,0,0,0,13.8,171.33l59.82,59.8a47.2,47.2,0,0,0-14.38,76.51l29.23,29.22L66,359.32a55.27,55.27,0,0,0,0,78l58.57,58.56a55.27,55.27,0,0,0,78,0l79.27-79.25,79.22,79.21a55.27,55.27,0,0,0,78,0l56.8-56.79a55.27,55.27,0,0,0,0-78ZM477,174.08a17.13,17.13,0,0,1,0,24.23l-62.24,62.23a176.72,176.72,0,0,0-.93-47.52l39-38.94a17.12,17.12,0,0,1,24.22,0Zm-69.66-45.43h0L430,105.94a17.13,17.13,0,1,1,24.23,24.22l-22.71,22.7h0L405,179.34a174.66,174.66,0,0,0-16-32.45ZM361.84,83.21a17.14,17.14,0,0,1,29.25,12.11,17,17,0,0,1-5,12.11h0l-15.29,15.29c-2-2.28-4.14-4.52-6.32-6.69L346.74,98.32ZM181.38,474.68a25.29,25.29,0,0,1-35.59,0L87.22,416.11a25.28,25.28,0,0,1,0-35.58l22.46-22.46,6.37,6.36a174.53,174.53,0,0,0,124.14,51.45Zm293.3-56.84-56.8,56.8a25.29,25.29,0,0,1-35.59,0l-89.83-89.82A15,15,0,0,0,278,380.93a146.25,146.25,0,0,1-37.73,4.95,144.7,144.7,0,0,1-103-42.66l-16.91-16.91-.06-.06-.06-.06L80.46,286.43a17.13,17.13,0,1,1,24.23-24.23h0L116,273.56a15,15,0,0,0,21.22-21.21L125.9,241h0L35,150.11a17.13,17.13,0,1,1,24.22-24.22l68.17,68.16a15,15,0,0,0,21.21-21.22L80.45,104.68h0L57.74,82A17.13,17.13,0,1,1,82,57.74l22.72,22.72h0l68.15,68.14a15,15,0,0,0,21.22-21.21L125.9,59.25A17.13,17.13,0,1,1,150.13,35l45.43,45.43h0l56.8,56.79A15,15,0,1,0,273.58,116l-56.8-56.79h0A17.13,17.13,0,1,1,241,35l73.89,73.88s0,0,0,0l0,0,28.3,28.31A146.16,146.16,0,0,1,381,278a15,15,0,0,0,3.89,14.48l89.83,89.83a25.27,25.27,0,0,1,0,35.57Z"/></g></g></svg>