<svg xmlns="http://www.w3.org/2000/svg" viewBox="0 0 512 512"><title>certificates</title><g id="Layer_2" data-name="Layer 2"><g id="Layer_1-2" data-name="Layer 1"><path d="M497,0H15A15,15,0,0,0,0,15V376a15,15,0,0,0,15,15H189a92.73,92.73,0,0,0,7,7v99a15,15,0,0,0,23.32,12.48L256,485l36.68,24.45A15,15,0,0,0,316,497V398a91.17,91.17,0,0,0,7-7H497a15,15,0,0,0,15-15V15A15,15,0,0,0,497,0ZM286,469l-21.68-14.45a15,15,0,0,0-16.64,0L226,469V415.85a90,90,0,0,0,60,0Zm-30-78a60,60,0,1,1,60-60A60.07,60.07,0,0,1,256,391Zm0-150a90.15,90.15,0,0,0-84.85,60H118.43A45.23,45.23,0,0,0,91,273.57V118.43A45.23,45.23,0,0,0,118.43,91H393.57A45.23,45.23,0,0,0,421,118.43V273.57A45.23,45.23,0,0,0,393.57,301H340.85A90.15,90.15,0,0,0,256,241ZM482,361H340.85A89.56,89.56,0,0,0,346,331h60a15,15,0,0,0,15-15,15,15,0,0,1,15-15,15,15,0,0,0,15-15V106a15,15,0,0,0-15-15,15,15,0,0,1-15-15,15,15,0,0,0-15-15H106A15,15,0,0,0,91,76,15,15,0,0,1,76,91a15,15,0,0,0-15,15V286a15,15,0,0,0,15,15,15,15,0,0,1,15,15,15,15,0,0,0,15,15h60a89.62,89.62,0,0,0,5.15,30H30V30H482Z"/><path d="M166,151H346a15,15,0,0,0,0-30H166a15,15,0,0,0,0,30Z"/><path d="M391,196a15,15,0,0,0-15-15H136a15,15,0,0,0,0,30H376A15,15,0,0,0,391,196Z"/></g></g></svg>