<svg xmlns="http://www.w3.org/2000/svg" viewBox="0 0 512 375"><title>payment</title><g id="Layer_2" data-name="Layer 2"><g id="Capa_1" data-name="Capa 1"><path d="M467,0H45A45.05,45.05,0,0,0,0,45V330a45.05,45.05,0,0,0,45,45H467a45.05,45.05,0,0,0,45-45V45A45.05,45.05,0,0,0,467,0Zm15,330a15,15,0,0,1-15,15H45a15,15,0,0,1-15-15V165H482Zm0-195H30V105H482Zm0-60H30V45A15,15,0,0,1,45,30H467a15,15,0,0,1,15,15Z"/><path d="M76,315H196a15,15,0,0,0,15-15V210a15,15,0,0,0-15-15H76a15,15,0,0,0-15,15v90A15,15,0,0,0,76,315Zm15-90h90v60H91Z"/><path d="M331,315A59.58,59.58,0,0,0,361,307,59.47,59.47,0,0,0,391,315a60,60,0,0,0,0-120,59.45,59.45,0,0,0-30,8.05,60,60,0,1,0-30,112Zm90-60a30,30,0,0,1-37.52,29.05,59.83,59.83,0,0,0,0-58.1A30,30,0,0,1,421,255Zm-90-30a30,30,0,1,1-30,30A30,30,0,0,1,331,225Z"/></g></g></svg>