<svg xmlns="http://www.w3.org/2000/svg" viewBox="0 0 512 376.39"><title>read</title><g id="Layer_2" data-name="Layer 2"><g id="Capa_1" data-name="Capa 1"><path d="M496.94,48.77H452.35V15.06A15.06,15.06,0,0,0,437.29,0H304.83A63.94,63.94,0,0,0,256,22.73,64,64,0,0,0,207.19,0H74.71A15.06,15.06,0,0,0,59.65,15.06V48.77H15.06A15.06,15.06,0,0,0,0,63.83V307a15.06,15.06,0,0,0,15.06,15.06H150.71a27.37,27.37,0,0,1,25.9,18.53,52.83,52.83,0,0,0,50,35.8h58.72a52.86,52.86,0,0,0,50-35.8,27.34,27.34,0,0,1,25.9-18.53H496.94A15.06,15.06,0,0,0,512,307V63.83A15.06,15.06,0,0,0,496.94,48.77ZM271.07,63.88a33.79,33.79,0,0,1,33.76-33.76H422.24V228.47H304.83a63.7,63.7,0,0,0-33.76,9.67ZM89.76,30.12H207.19A33.8,33.8,0,0,1,241,63.88V238.14a63.68,63.68,0,0,0-33.76-9.67H89.76ZM481.88,291.94H361.29a57.44,57.44,0,0,0-54.41,38.93,22.74,22.74,0,0,1-21.52,15.4H226.64a22.71,22.71,0,0,1-21.52-15.4,57.48,57.48,0,0,0-54.41-38.93H30.12v-213H59.65V243.52a15.06,15.06,0,0,0,15.06,15.06H207.19A33.81,33.81,0,0,1,241,292.35a15.06,15.06,0,0,0,30.12,0,33.8,33.8,0,0,1,33.76-33.77H437.29a15.06,15.06,0,0,0,15.06-15.06V78.89h29.53Z"/><path d="M183.1,82.88H140.65a15.06,15.06,0,0,0,0,30.11H183.1a15.06,15.06,0,1,0,0-30.11Z"/><path d="M183.1,148.59H140.65a15.06,15.06,0,0,0,0,30.12H183.1a15.06,15.06,0,0,0,0-30.12Z"/><path d="M328.9,113h42.45a15.06,15.06,0,0,0,0-30.11H328.9a15.06,15.06,0,1,0,0,30.11Z"/><path d="M328.9,178.71h42.45a15.06,15.06,0,0,0,0-30.12H328.9a15.06,15.06,0,0,0,0,30.12Z"/></g></g></svg>