<svg xmlns="http://www.w3.org/2000/svg" viewBox="0 0 512 512"><defs><style>.cls-1{fill-rule:evenodd;}</style></defs><title>security</title><g id="Layer_2" data-name="Layer 2"><g id="Layer_1-2" data-name="Layer 1"><path class="cls-1" d="M481.39,0H30.61A30.64,30.64,0,0,0,0,30.61V384.39A30.64,30.64,0,0,0,30.61,415H168.54q-8.37,33.5-16.75,67H137.11a15,15,0,0,0,0,30H374.89a15,15,0,0,0,0-30H360.21c-4.09-16.34-16.75-67-16.75-67H481.39A30.64,30.64,0,0,0,512,384.39V30.61A30.64,30.64,0,0,0,481.39,0ZM329.29,482H182.71q8.39-33.5,16.75-67H312.54S325.81,468.09,329.29,482ZM482,384.39a.66.66,0,0,1-.61.61H30.61a.66.66,0,0,1-.61-.61V30.61a.66.66,0,0,1,.61-.61H481.39a.66.66,0,0,1,.61.61Z"/><path class="cls-1" d="M189,199.56a15,15,0,0,0,30,0,37,37,0,0,1,37-37h0a37,37,0,0,1,37,37,15,15,0,0,0,30,0,66.92,66.92,0,0,0-28.33-54.66,51.28,51.28,0,1,0-77.34,0A66.92,66.92,0,0,0,189,199.56Zm45.72-88.28A21.28,21.28,0,1,1,256,132.56h0a21.31,21.31,0,0,1-21.27-21.28Z"/><path class="cls-1" d="M361,235H151a60,60,0,0,0,0,120H361a60,60,0,0,0,0-120Zm0,90H151a30,30,0,0,1,0-60H361a30,30,0,0,1,0,60Z"/><path class="cls-1" d="M286,280a15,15,0,1,0,15,15A15,15,0,0,0,286,280Z"/><path class="cls-1" d="M166,280a15,15,0,1,0,15,15A15,15,0,0,0,166,280Z"/><path class="cls-1" d="M226,280a15,15,0,1,0,15,15A15,15,0,0,0,226,280Z"/><path class="cls-1" d="M346,280a15,15,0,1,0,15,15A15,15,0,0,0,346,280Z"/></g></g></svg>