<svg xmlns="http://www.w3.org/2000/svg" viewBox="0 0 512 512"><title>results</title><g id="Layer_2" data-name="Layer 2"><g id="Capa_1" data-name="Capa 1"><path d="M494.29,265.92H283.62a17.68,17.68,0,0,0-12.52,5.19l-149,149a17.71,17.71,0,0,0,0,25A226.84,226.84,0,0,0,283.62,512C409.55,512,512,409.56,512,283.63A17.7,17.7,0,0,0,494.29,265.92ZM283.62,476.58A191.48,191.48,0,0,1,160.27,432L291,301.33H475.78C466.81,399.46,384.05,476.58,283.62,476.58Z"/><path d="M246.08,256V45.33a17.69,17.69,0,0,0-17.7-17.7C102.45,27.63,0,130.07,0,256A226.92,226.92,0,0,0,66.89,417.49a17.72,17.72,0,0,0,25,0l149-149A17.69,17.69,0,0,0,246.08,256Zm-35.41-7.33L80,379.36A191.53,191.53,0,0,1,35.42,256c0-100.43,77.12-183.19,175.25-192.15Z"/><path d="M283.62,246.08H494.29A17.7,17.7,0,0,0,512,228.38C512,102.45,409.55,0,283.62,0a17.7,17.7,0,0,0-17.7,17.71V228.38A17.69,17.69,0,0,0,283.62,246.08ZM301.33,36.22c92.3,8.44,166,82.15,174.45,174.45H301.33Z"/></g></g></svg>