<svg xmlns="http://www.w3.org/2000/svg" viewBox="0 0 512 447.77"><title>security</title><g id="Layer_2" data-name="Layer 2"><g id="Layer_1-2" data-name="Layer 1"><path d="M464.87,0H239.93A47.19,47.19,0,0,0,192.8,47.13v144.3L151,170.66c-1.41-.71-2.85-1.37-4.29-2A71.23,71.23,0,1,0,48.47,173,94.92,94.92,0,0,0,0,256v48.2a47.21,47.21,0,0,0,32.13,44.69v83.84a15,15,0,0,0,15,15h96.4a15,15,0,0,0,15-15V264.2l48,24c18.38,9.18,43.31,3.71,54.59-17.21h53.78L258,427.61a15,15,0,0,0,28.19,10.25L346.84,271h10.52l61.29,166.91c2.33,6.33,10.19,12.23,19.26,8.9a15,15,0,0,0,8.9-19.25L389.31,271h75.56A47.13,47.13,0,0,0,512,223.87V47.13A47.13,47.13,0,0,0,464.87,0ZM54.1,119.43a41.24,41.24,0,1,1,41.23,41.23A41.28,41.28,0,0,1,54.1,119.43ZM235.5,255a3.38,3.38,0,0,0-.11.34A11.11,11.11,0,0,1,220,261.38c-28.52-14.27-69.74-34.86-69.74-34.86a15,15,0,0,0-21.7,13.41v177.8H62.13v-81.4a15,15,0,0,0-15-15A17.14,17.14,0,0,1,30,304.2V256a65.34,65.34,0,0,1,65.33-65.33h13.26a65.41,65.41,0,0,1,29.07,6.84s74.4,37,93.35,46.44A9,9,0,0,1,235.5,255ZM482,223.87A17,17,0,0,1,477,236a17.25,17.25,0,0,1-12.12,5H264.4c0-.08,0-.16-.08-.24l37.23-74.45a15,15,0,1,0-26.83-13.42L243,216.39l-20.17-10V47.13A17.15,17.15,0,0,1,239.93,30H464.87A17.25,17.25,0,0,1,477,35a17,17,0,0,1,5,12.11Z"/></g></g></svg>